<?xml version="1.0" encoding="UTF-8"?>
<svg version="1.1" xmlns="http://www.w3.org/2000/svg" width="1174" height="542">
<path d="M0 0 C387.42 0 774.84 0 1174 0 C1174 178.86 1174 357.72 1174 542 C786.58 542 399.16 542 0 542 C0 363.14 0 184.28 0 0 Z " fill="#FEFEFE" transform="translate(0,0)"/>
<path d="M0 0 C3.0954629 1.75114758 5.42273179 4.17985665 7.86328125 6.72265625 C8.39735596 7.26913818 8.93143066 7.81562012 9.48168945 8.37866211 C15.9907282 15.0833574 21.90468117 22.1894037 27.796875 29.4375 C29.8322043 31.89612136 31.91612399 34.28784331 34.05078125 36.66015625 C37.73033489 40.75420506 41.21757337 44.98225449 44.68359375 49.2578125 C46.76449475 51.80914821 48.87116729 54.33464399 50.99121094 56.85327148 C54.89534385 61.49470616 58.63390901 66.14874363 62.05078125 71.16015625 C60.55229167 75.03910357 58.39520158 76.56200084 54.98828125 78.84765625 C36.09178852 92.25727674 23.81986276 112.57427876 19.45800781 135.27441406 C18.66587827 140.88770616 18.57476836 146.49842408 18.55078125 152.16015625 C18.54449707 153.28115723 18.53821289 154.4021582 18.53173828 155.55712891 C18.64290333 162.83034521 19.78675215 169.25036713 22.05078125 176.16015625 C22.004375 175.26296875 21.95796875 174.36578125 21.91015625 173.44140625 C21.3549295 154.24642448 27.10970307 136.67161246 40.05078125 122.16015625 C40.86482422 121.24169922 40.86482422 121.24169922 41.6953125 120.3046875 C53.52250529 107.75733777 70.32897356 99.65601362 87.546875 98.921875 C107.88921731 98.46375115 125.71260012 102.95323973 141.45703125 116.66015625 C156.12576698 130.79869671 164.97968245 148.33524611 165.48828125 168.78515625 C164.91963684 186.83013877 158.82479658 201.97469062 148.05078125 216.16015625 C147.426875 217.00578125 146.80296875 217.85140625 146.16015625 218.72265625 C134.56950099 232.11630232 117.16994466 239.84634946 99.7734375 241.6953125 C96.52820569 241.92923276 93.30349222 242.10263242 90.05078125 242.16015625 C115.42884241 246.86277749 138.87376784 242.52039408 160.328125 228.76953125 C163.05078125 227.16015625 163.05078125 227.16015625 165.05078125 227.16015625 C179.58048581 257.56490839 186.49681459 284.59745944 186.05078125 318.16015625 C186.04353027 318.94326172 186.0362793 319.72636719 186.02880859 320.53320312 C185.86110109 332.09649306 182.96743621 343.03830007 180.05078125 354.16015625 C177.11410849 354.62433003 174.17657394 355.08143325 171.23828125 355.53515625 C170.44357422 355.66148437 169.64886719 355.7878125 168.83007812 355.91796875 C165.9074629 356.36587913 162.98166381 356.76969996 160.05078125 357.16015625 C159.40726715 357.24733917 158.76375305 357.33452209 158.10073853 357.42434692 C145.10387853 359.13633085 132.24475174 359.4410942 119.14624023 359.3659668 C115.88452202 359.34777472 112.62309179 359.34545779 109.36132812 359.34570312 C89.17055933 359.31368731 69.03610355 358.87761702 48.98828125 356.34765625 C48.27131073 356.25989929 47.55434021 356.17214233 46.81564331 356.08172607 C28.18368994 353.79986482 9.98566545 350.42552074 -8.30834961 346.23754883 C-15.85340451 344.54036068 -23.27018131 343.32233659 -30.9609375 342.5859375 C-34.49262839 342.24157366 -37.95751741 341.67491656 -41.45117188 341.06054688 C-83.75354214 333.73004315 -133.28371217 332.69376379 -175.234375 342.609375 C-177.8869683 343.14752702 -180.25142995 343.26410775 -182.94921875 343.16015625 C-187.31177725 331.15395533 -187.163183 318.09896233 -187.26171875 305.47265625 C-187.27928223 304.27439209 -187.2968457 303.07612793 -187.31494141 301.84155273 C-187.30907208 293.26352903 -186.04289155 285.46450785 -183.94921875 277.16015625 C-183.70888916 276.17523193 -183.46855957 275.19030762 -183.22094727 274.17553711 C-180.86226264 264.73176778 -178.51983885 255.35404388 -174.14453125 246.6171875 C-172.81901831 243.89252202 -171.79652893 241.13269335 -170.76171875 238.28515625 C-166.07399812 225.89829952 -160.3788707 213.5121617 -153.29296875 202.3125 C-151.82203389 199.95643864 -150.50926271 197.54671066 -149.19921875 195.09765625 C-133.43805594 166.04687544 -114.43742647 138.80856808 -94.94921875 112.16015625 C-94.08031006 110.9680957 -94.08031006 110.9680957 -93.19384766 109.75195312 C-86.45854862 100.51644338 -79.64033537 91.37018113 -72.52734375 82.421875 C-70.37889282 79.71692682 -68.27808522 76.9789881 -66.1887207 74.22827148 C-61.99246012 68.70792001 -57.64013638 63.36578629 -53.12280273 58.10522461 C-49.795442 54.21309354 -46.63576665 50.21642945 -43.51171875 46.16015625 C-39.36302763 40.7930984 -34.94732473 35.78307885 -30.29370117 30.8503418 C-27.14640202 27.50233641 -24.19231455 24.06787493 -21.32421875 20.47265625 C-16.90462881 14.96825787 -12.01000853 10.0701278 -6.94921875 5.16015625 C-6.10875 4.21914063 -5.26828125 3.278125 -4.40234375 2.30859375 C-1.94921875 0.16015625 -1.94921875 0.16015625 0 0 Z " fill="#1C4B9E" transform="translate(206.94921875,28.83984375)"/>
<path d="M0 0 C30.66930879 -1.03386841 58.65296844 3.71114022 88.09663391 11.9908905 C96.8169835 14.44176069 105.54841661 16.55171224 114.42407227 18.37451172 C120.17284974 19.56568538 125.79869985 20.99258851 131.4375 22.625 C138.06703123 24.53565968 144.66551593 25.99302779 151.46875 27.18359375 C155.0026507 27.80412989 158.5164323 28.50187818 162.03125 29.22265625 C163.10818115 29.44308594 164.1851123 29.66351563 165.29467773 29.890625 C167.39908397 30.32329784 169.50282208 30.75923967 171.60571289 31.19921875 C174.7312542 31.83730067 177.86132271 32.43008981 181 33 C182.03511719 33.19198975 183.07023438 33.38397949 184.13671875 33.58178711 C197.28506343 35.68344421 210.59412384 35.44077253 223.875 35.4375 C225.16590546 35.43823517 226.45681091 35.43897034 227.78683472 35.43972778 C256.2424889 35.39714172 281.91124654 32.2305708 309.19775391 23.82324219 C314.08997289 22.38600901 319.04370167 21.19393599 324 20 C311.41317157 45.46114809 286.84940879 65.64119305 263 80 C262.30745117 80.41813965 261.61490234 80.8362793 260.90136719 81.26708984 C250.87472632 87.25044196 240.95787474 91.85211499 229.83789062 95.39599609 C227.29238426 96.23255066 224.80805657 97.21335731 222.3125 98.1875 C216.00565087 100.46549625 209.59121546 101.83115984 203 103 C202.25476074 103.13825195 201.50952148 103.27650391 200.74169922 103.41894531 C153.03624961 112.0115512 103.21923052 102.0826826 63.03027344 74.65576172 C53.73802791 68.0861842 45.17554161 60.90919961 37 53 C36.06929687 52.10925781 35.13859375 51.21851563 34.1796875 50.30078125 C29.90272557 46.12980817 26.00155425 42.18450279 23 37 C28.93055291 37.5302612 34.8421114 38.1968269 40.75 38.9375 C42.59851563 39.16759766 42.59851563 39.16759766 44.484375 39.40234375 C47.8502041 39.9745347 50.76821783 40.9214126 54 42 C55.53595121 42.31133679 57.07549097 42.60520761 58.6171875 42.88671875 C64.61899722 44.03884185 70.32849738 45.89967199 76.125 47.8125 C78.35146196 48.53546596 80.57802432 49.25812279 82.8046875 49.98046875 C83.87299805 50.32899902 84.94130859 50.6775293 86.04199219 51.03662109 C96.77167357 54.53111785 107.55867657 57.76563477 118.41699219 60.83374023 C123.30186384 62.21653053 128.15969422 63.65405367 133 65.1875 C170.92649019 76.86461275 212.05275903 76.04853872 250 65 C249.09266113 65.14002441 248.18532227 65.28004883 247.25048828 65.42431641 C238.09282618 66.75337015 229.14485746 67.38718115 219.875 67.375 C218.85434952 67.37468277 218.85434952 67.37468277 217.81307983 67.37435913 C190.96235475 67.29231104 164.85559991 62.05576456 139.39746094 53.77148438 C125.04305986 49.1523492 110.63471388 44.64718524 96 41 C95.24541504 40.8030957 94.49083008 40.60619141 93.71337891 40.40332031 C83.99598611 37.86901507 74.26073555 35.66206478 64.3125 34.25 C63.39227051 34.1164209 62.47204102 33.9828418 61.52392578 33.84521484 C55.42228516 33.08669836 49.56356109 33.0226265 43.44140625 33.30078125 C21.16338737 34.14737976 21.16338737 34.14737976 15.29541016 30.1640625 C11.0249499 25.62317479 8.37861088 20.42948494 6.08349609 14.67626953 C4.59491705 10.99943232 2.76033791 7.52696001 0.92895508 4.01147461 C0 2 0 2 0 0 Z " fill="#1D4C9D" transform="translate(39,414)"/>
<path d="M0 0 C3.11709136 1.69624851 5.38929088 3.77858175 7 7 C7.62256565 15.53602757 6.44949746 23.63625536 4.875 32 C4.53148494 33.90584679 4.18802256 35.81170379 3.84651184 37.71791077 C3.60583532 39.05954629 3.36394468 40.40096453 3.12089539 41.74217224 C1.82243263 48.91907486 0.62555337 56.11216115 -0.56448364 63.30770874 C-0.93890147 65.57097153 -1.31480056 67.83398351 -1.69116211 70.09692383 C-2.46179967 74.73111262 -3.2309842 79.36554185 -4 84 C-4.93375439 89.62676857 -5.86819423 95.25342211 -6.8039856 100.87985229 C-7.172668 103.09825427 -7.54034832 105.31682061 -7.90795898 107.53540039 C-9.06510094 114.50298796 -10.25109048 121.46412412 -11.48828125 128.41796875 C-12.53012974 134.27525334 -13.53291096 140.13771712 -14.5 146.0078125 C-14.62373489 146.75809219 -14.74746979 147.50837189 -14.87495422 148.28138733 C-15.37668081 151.32777548 -15.87741383 154.37431932 -16.375 157.42138672 C-17.86514162 166.53492213 -19.48598341 175.59367114 -21.33496094 184.64208984 C-22.22980667 189.1603381 -22.95122617 193.69437015 -23.625 198.25 C-24.87070201 206.61210602 -24.87070201 206.61210602 -26 210 C-28.16796875 210.39453125 -28.16796875 210.39453125 -31 210 C-33.02634793 207.92518934 -34.63043545 206.01515094 -36.3125 203.6875 C-36.79323975 203.0488501 -37.27397949 202.4102002 -37.76928711 201.75219727 C-39.19688341 199.84691168 -40.60153264 197.92673175 -42 196 C-42.70640625 195.03578125 -43.4128125 194.0715625 -44.140625 193.078125 C-45.42852686 191.30856878 -46.71103544 189.53507544 -47.98828125 187.7578125 C-50.19221697 184.7364948 -52.46125099 181.76960502 -54.75 178.8125 C-58.49857943 173.96711131 -62.20310863 169.09128238 -65.875 164.1875 C-66.3803125 163.51267578 -66.885625 162.83785156 -67.40625 162.14257812 C-69.41999088 159.45162743 -71.43230565 156.75961266 -73.44433594 154.06738281 C-80.26116506 144.94864571 -87.13425833 135.87479641 -94.04199219 126.82470703 C-100.07362349 118.91711887 -106.04904729 110.96841584 -112 103 C-115.87668836 119.69958065 -118.53013197 136.67455774 -121.4375 153.5625 C-121.82345834 155.80014908 -122.20952552 158.03777938 -122.59570312 160.27539062 C-122.88111214 161.92966316 -122.88111214 161.92966316 -123.17228699 163.61735535 C-123.55321273 165.82405044 -123.93448621 168.03068553 -124.31611633 170.23725891 C-125.25544566 175.67066024 -126.18841622 181.10499356 -127.1081543 186.54174805 C-127.28600967 187.58479599 -127.46386505 188.62784393 -127.64710999 189.70249939 C-127.98104736 191.66100921 -128.31209427 193.62001506 -128.63963318 195.5796051 C-131.22420546 210.66904655 -131.22420546 210.66904655 -136.1875 216.625 C-140.11252259 218.54389993 -143.62654468 219.31624633 -148 219 C-151.65909943 217.30597249 -153.48401852 215.66578256 -155.9375 212.5 C-158.6741815 203.48504918 -155.37801651 192.41248368 -153.8125 183.3125 C-153.59327881 182.01723389 -153.37405762 180.72196777 -153.14819336 179.38745117 C-151.29339033 168.47854375 -149.308992 157.59342982 -147.30859375 146.71044922 C-145.13807831 134.88120978 -143.09467388 123.03182701 -141.09204102 111.1730957 C-139.85664618 103.87539812 -138.56229023 96.59426027 -137.18212891 89.3221283 C-135.46468915 80.23164873 -133.89874011 71.11408954 -132.3125 62 C-131.98902432 60.14581728 -131.66545713 58.29165051 -131.34179688 56.4375 C-130.5601467 51.95851598 -129.77972165 47.47932013 -129 43 C-123.28417969 42.74755859 -123.28417969 42.74755859 -120.7265625 45.01953125 C-120.03304687 45.94121094 -119.33953125 46.86289063 -118.625 47.8125 C-117.85414063 48.82054687 -117.08328125 49.82859375 -116.2890625 50.8671875 C-115.53367187 51.90101563 -114.77828125 52.93484375 -114 54 C-113.32710938 54.91007812 -112.65421875 55.82015625 -111.9609375 56.7578125 C-110.64002492 58.56288427 -109.32766927 60.37424538 -108.0234375 62.19140625 C-102.8107664 69.42675475 -97.39075196 76.50768112 -91.9375 83.5625 C-88.21532579 88.37784047 -84.61044186 93.26668182 -81.05078125 98.203125 C-78.81146128 101.2571309 -76.50777666 104.25749365 -74.1875 107.25 C-70.06863231 112.56384782 -66.07752029 117.96120822 -62.11938477 123.39550781 C-58.26745443 128.6698049 -54.30142033 133.84700533 -50.2890625 139 C-47.78302501 142.28436313 -45.38594695 145.62763682 -43 149 C-37.78543652 126.78263111 -34.36180757 104.26854944 -30.87266541 81.72972107 C-30.37535148 78.51963024 -29.87535258 75.30996025 -29.375 72.1003418 C-29.12364145 70.48303934 -28.87365588 68.86552293 -28.625 67.24780273 C-27.23035689 58.18353046 -25.67817146 49.22355278 -23.68310547 40.26782227 C-22.3455374 33.86919876 -21.50320931 27.38190109 -20.62695312 20.90625 C-19.51256486 13.38995761 -17.90354138 7.41593103 -12.875 1.5 C-8.59663512 -0.73219037 -4.72095966 -0.89743482 0 0 Z " fill="#1D4C9D" transform="translate(608,171)"/>
<path d="M0 0 C2.64344006 0.99472485 4.63550963 2.00854841 6.44140625 4.20703125 C7.51992356 8.5211005 7.46741637 12.12443965 6.00390625 16.33203125 C3.67855364 19.96539471 0.9727765 22.98196911 -1.94140625 26.15234375 C-4.31995408 28.82029664 -6.41435516 31.6194069 -8.4765625 34.53515625 C-10.45931276 37.04290209 -12.73462855 39.19899251 -14.99609375 41.45703125 C-16.3737529 43.08325079 -17.72748007 44.72999796 -19.05859375 46.39453125 C-22.63325171 50.81378394 -26.28364909 55.15306257 -29.99609375 59.45703125 C-36.13624082 66.59128818 -42.18189892 73.79038842 -47.92578125 81.25 C-48.4252124 81.89582031 -48.92464355 82.54164063 -49.43920898 83.20703125 C-50.42102084 84.47997014 -51.39728694 85.75720947 -52.36743164 87.0390625 C-53.53119317 88.54816704 -54.75848833 90.00786935 -55.99609375 91.45703125 C-56.65609375 91.45703125 -57.31609375 91.45703125 -57.99609375 91.45703125 C-57.40828125 92.78734375 -57.40828125 92.78734375 -56.80859375 94.14453125 C-55.28158728 97.68833871 -53.91892905 101.28376471 -52.55859375 104.89453125 C-50.91423721 109.20727474 -49.15292285 113.32391414 -47.00805664 117.40600586 C-45.98862689 119.47216492 -45.14244032 121.54636405 -44.3125 123.6953125 C-41.40762159 131.03504804 -38.18142678 138.23605732 -34.99609375 145.45703125 C-29.89907401 157.01169332 -24.9941204 168.46295131 -20.99609375 180.45703125 C-30.23609375 180.45703125 -39.47609375 180.45703125 -48.99609375 180.45703125 C-51.34734375 175.07390625 -51.34734375 175.07390625 -53.74609375 169.58203125 C-54.23174805 168.47230957 -54.71740234 167.36258789 -55.21777344 166.21923828 C-57.59556855 160.76230491 -59.88623591 155.28355625 -62.07568359 149.74853516 C-63.45082372 146.32491043 -64.9366712 142.95376116 -66.43359375 139.58203125 C-74.04889667 122.29862249 -74.04889667 122.29862249 -75.99609375 116.45703125 C-76.65609375 116.12703125 -77.31609375 115.79703125 -77.99609375 115.45703125 C-78.31900391 116.24400391 -78.31900391 116.24400391 -78.6484375 117.046875 C-80.5247048 120.40240231 -83.0310264 123.14786438 -85.55859375 126.01953125 C-86.65464478 127.28038232 -87.74968864 128.54210958 -88.84375 129.8046875 C-89.65223389 130.73692139 -89.65223389 130.73692139 -90.47705078 131.68798828 C-92.52744808 134.07583444 -94.51542596 136.5111791 -96.49609375 138.95703125 C-99.91621371 143.17641837 -103.43759297 147.29251788 -106.99609375 151.39453125 C-111.59233309 156.699003 -115.85848164 162.13676471 -119.9609375 167.8359375 C-122.12040619 170.61713422 -124.49246695 172.98417098 -126.99609375 175.45703125 C-128.60193627 177.31278965 -130.18457892 179.1888221 -131.74609375 181.08203125 C-132.17873535 181.60490723 -132.61137695 182.1277832 -133.05712891 182.66650391 C-135.84545391 186.04120174 -138.60835098 189.43636922 -141.37109375 192.83203125 C-145.35305617 197.71450814 -149.4435159 202.4954658 -153.55639648 207.26733398 C-156.56828339 210.76900527 -159.52653807 214.30471754 -162.43359375 217.89453125 C-163.17480469 218.755625 -163.91601562 219.61671875 -164.6796875 220.50390625 C-166.5047602 222.83064312 -167.85193738 224.92129436 -169.28125 227.47265625 C-172.19584033 232.17721499 -174.90351659 236.00904962 -179.99609375 238.45703125 C-190.84269585 240.3395338 -202.08471452 239.37708614 -212.99609375 238.45703125 C-209.37689642 233.54431035 -205.66507177 228.76794783 -201.68359375 224.14453125 C-198.28079135 220.16095932 -194.91712845 216.15503177 -191.62109375 212.08203125 C-187.45517653 206.96049144 -183.1351918 201.98463368 -178.79785156 197.00878906 C-174.85518385 192.47552865 -171.02025061 187.86780364 -167.23828125 183.19921875 C-164.69355692 180.08702977 -162.0999115 177.01976628 -159.49609375 173.95703125 C-156.12320773 169.98803973 -152.78432601 165.99685945 -149.49609375 161.95703125 C-142.93119732 153.89958288 -136.18459044 145.99711851 -129.40722656 138.11816406 C-124.61493281 132.54594202 -119.89794155 126.92621092 -115.26171875 121.22265625 C-108.75589312 113.28106221 -102.04772869 105.50494841 -95.37109375 97.70703125 C-94.84990967 97.09819092 -94.32872559 96.48935059 -93.79174805 95.86206055 C-90.11891224 91.57984974 -90.11891224 91.57984974 -88.99609375 90.45703125 C-88.64171115 86.42415723 -89.50136348 83.69193855 -91.12109375 80.01953125 C-91.57871094 78.96636719 -92.03632812 77.91320312 -92.5078125 76.828125 C-93.24451172 75.15943359 -93.24451172 75.15943359 -93.99609375 73.45703125 C-94.97714047 71.16616879 -95.95627099 68.87448489 -96.93359375 66.58203125 C-97.95380726 64.20676493 -98.97464621 61.83176715 -99.99609375 59.45703125 C-102.91790559 52.6641895 -105.83348294 45.87052152 -108.6640625 39.0390625 C-109.99630866 35.82599824 -111.34787755 32.63088072 -112.796875 29.46875 C-113.54517578 27.82326172 -113.54517578 27.82326172 -114.30859375 26.14453125 C-114.82035156 25.03464844 -115.33210938 23.92476562 -115.859375 22.78125 C-117.44813606 18.13507935 -117.77216654 14.25425244 -115.80859375 9.70703125 C-113.62253861 6.99330763 -112.26400058 5.7357774 -108.99609375 4.45703125 C-104.56591634 4.25230956 -100.89514468 5.08683381 -96.80859375 6.76953125 C-89.78822127 13.47788717 -86.91392121 23.95885629 -83.42578125 32.87109375 C-81.85756163 36.80449706 -80.13722708 40.64082569 -78.36328125 44.484375 C-76.609823 48.29689423 -74.88802803 52.12237571 -73.18359375 55.95703125 C-72.86914307 56.6523999 -72.55469238 57.34776855 -72.23071289 58.06420898 C-70.91818458 61.03006371 -69.99609375 63.17656395 -69.99609375 66.45703125 C-69.33609375 66.45703125 -68.67609375 66.45703125 -67.99609375 66.45703125 C-67.74730469 65.88726562 -67.49851562 65.3175 -67.2421875 64.73046875 C-65.80647595 62.1110828 -64.10901919 60.25481481 -62.05859375 58.08203125 C-58.32201371 54.01557657 -54.86720811 49.8237138 -51.49609375 45.45703125 C-47.57915817 40.39457037 -43.49704663 35.58362156 -39.1640625 30.8671875 C-36.92098501 28.37353198 -34.79582089 25.81223779 -32.68359375 23.20703125 C-29.08842092 18.7855994 -25.47559886 14.38152277 -21.80859375 10.01953125 C-21.07805786 9.13249512 -21.07805786 9.13249512 -20.33276367 8.22753906 C-14.64355646 1.50489367 -9.01029423 -2.45094109 0 0 Z " fill="#1C4B9D" transform="translate(1150.99609375,195.54296875)"/>
<path d="M0 0 C3.33452623 1.27649832 6.22013197 2.76153848 8.17578125 5.8671875 C10.92307988 12.97631096 8.48952586 21.07199308 6.85546875 28.18359375 C4.59245853 38.27930602 3.05171004 48.51630044 1.5625 58.75 C0.17969086 68.19212069 -1.57102069 77.53900174 -3.39794922 86.90380859 C-4.57428804 92.95341479 -5.73013935 99.00686448 -6.875 105.0625 C-7.00135834 105.7298114 -7.12771667 106.3971228 -7.25790405 107.08465576 C-9.52436331 119.09191866 -11.53655906 131.13451916 -13.50317383 143.19400024 C-15.30584299 154.21768718 -17.3045395 165.1547354 -20 176 C-22.22265625 176.33203125 -22.22265625 176.33203125 -25 176 C-27.18359375 173.82421875 -27.18359375 173.82421875 -29.4375 170.6875 C-29.85580078 170.11644531 -30.27410156 169.54539062 -30.70507812 168.95703125 C-31.63679338 167.68247705 -32.56137174 166.40268495 -33.47998047 165.11865234 C-35.68844093 162.04042879 -37.94264516 158.99648923 -40.19287109 155.94873047 C-41.40227549 154.30994013 -42.60961843 152.66962656 -43.81494141 151.02783203 C-48.04340126 145.27034634 -52.35580332 139.58818763 -56.73046875 133.94140625 C-58.88754088 131.14575166 -61.01210206 128.32913453 -63.125 125.5 C-67.31831352 119.88912385 -71.56282645 114.31828057 -75.8125 108.75 C-81.67591931 101.06480327 -87.51009214 93.35926322 -93.29296875 85.61328125 C-95.09325472 83.20321058 -96.90868426 80.80585946 -98.73828125 78.41796875 C-99.16375244 77.85988525 -99.58922363 77.30180176 -100.02758789 76.72680664 C-101.16626739 75.23472033 -102.30951715 73.74612485 -103.453125 72.2578125 C-105 70 -105 70 -105 68 C-105.66 68 -106.32 68 -107 68 C-107.30483724 70.13386068 -107.60964127 72.2677261 -107.91430664 74.40161133 C-108.18247863 76.2778287 -108.45120701 78.15396661 -108.72045898 80.0300293 C-109.42548595 84.94801227 -110.12177465 89.86687563 -110.796875 94.7890625 C-110.98963013 96.17895386 -110.98963013 96.17895386 -111.1862793 97.59692383 C-111.43080331 99.36190801 -111.67203602 101.1273524 -111.90942383 102.89331055 C-112.07994263 104.11594604 -112.07994263 104.11594604 -112.25390625 105.36328125 C-112.35002197 106.06751221 -112.4461377 106.77174316 -112.54516602 107.49731445 C-113.06057322 110.33329901 -113.78404032 113.10030008 -114.49601746 115.89216614 C-115.28814803 119.20513731 -115.83189226 122.55621996 -116.3671875 125.91796875 C-116.61323989 127.42546248 -116.85933523 128.9329492 -117.10546875 130.44042969 C-117.23099121 131.21656616 -117.35651367 131.99270264 -117.48583984 132.7923584 C-118.14205157 136.83110692 -118.81866353 140.86645305 -119.4921875 144.90234375 C-120.37248273 150.1831067 -121.23311154 155.46610567 -122.0703125 160.75390625 C-122.37877189 162.5861799 -122.68852334 164.41823686 -123 166.25 C-123.11714355 167.0443042 -123.23428711 167.8386084 -123.35498047 168.65698242 C-124.39524027 174.5391437 -126.96490204 178.61594961 -131 183 C-134.73393222 185.52292718 -138.49803401 185.27026541 -142.84375 184.68359375 C-146.58622908 183.49711941 -147.88974079 181.23133442 -150 178 C-152.83345293 172.33309414 -150.74676181 164.37418562 -149.57421875 158.40625 C-149.42596146 157.61585327 -149.27770416 156.82545654 -149.12495422 156.0111084 C-148.65342977 153.50588907 -148.17087155 151.00295754 -147.6875 148.5 C-147.37487794 146.85431334 -147.06302386 145.2084806 -146.75195312 143.5625 C-146.28879916 141.1118611 -145.82518546 138.66132537 -145.35853577 136.21134949 C-144.06105626 129.38587421 -142.84625661 122.54746068 -141.65014648 115.70361328 C-140.99450921 111.96872128 -140.3119256 108.23979246 -139.61889648 104.51171875 C-138.17167902 96.71459919 -136.80680367 88.90636803 -135.515625 81.08203125 C-135.38573685 80.29587936 -135.25584869 79.50972748 -135.12202454 78.69975281 C-134.47411917 74.77227101 -133.8309385 70.84408467 -133.1940918 66.91479492 C-131.88586433 58.90661405 -130.43104758 50.97666419 -128.65063477 43.05761719 C-127.77172966 38.92725787 -127.14982523 34.77465221 -126.5390625 30.59765625 C-125.86797054 26.11884688 -125.12434084 21.6537815 -124.375 17.1875 C-124.23964844 16.37958008 -124.10429688 15.57166016 -123.96484375 14.73925781 C-123.64390918 12.82605768 -123.32205584 10.9130117 -123 9 C-119.72265625 8.73046875 -119.72265625 8.73046875 -116 9 C-114.05859375 10.73828125 -114.05859375 10.73828125 -112.4375 13.3125 C-111.76847656 14.31796875 -111.09945312 15.3234375 -110.41015625 16.359375 C-109.84772217 17.22079102 -109.84772217 17.22079102 -109.27392578 18.09960938 C-106.76498445 21.84234592 -104.0546359 25.441112 -101.375 29.0625 C-100.78211182 29.86880859 -100.18922363 30.67511719 -99.57836914 31.50585938 C-94.70797536 38.10810769 -89.7020595 44.59794715 -84.61865234 51.03735352 C-76 61.99281572 -76 61.99281572 -76 65 C-75.34 65 -74.68 65 -74 65 C-72.50081129 66.92664334 -71.11923171 68.85809996 -69.75 70.875 C-65.67880019 76.73266659 -61.41288969 82.39573187 -57 88 C-51.84309248 94.55579278 -46.91752485 101.21495962 -42.18359375 108.08203125 C-39.96659818 111.04463534 -37.67413471 113.45745716 -35 116 C-34.83564453 114.22109375 -34.83564453 114.22109375 -34.66796875 112.40625 C-34.50818312 110.77079708 -34.34800508 109.13538247 -34.1875 107.5 C-34.11724609 106.72785156 -34.04699219 105.95570313 -33.97460938 105.16015625 C-33.23089032 97.72296573 -31.82531087 90.43336103 -30.40420532 83.1036377 C-29.74831738 79.69014827 -29.12368025 76.27105961 -28.5 72.8515625 C-28.37739304 72.18051987 -28.25478607 71.50947723 -28.12846375 70.81809998 C-27.75166208 68.75385068 -27.37573635 66.68944345 -27 64.625 C-26.8034079 63.54649277 -26.8034079 63.54649277 -26.60284424 62.44619751 C-25.13191824 54.36975531 -23.68616776 46.29170272 -22.375 38.1875 C-21.33463969 31.86326444 -20.24094319 25.55005085 -19.0625 19.25 C-18.9166748 18.4149292 -18.77084961 17.5798584 -18.62060547 16.71948242 C-17.41877924 10.47776029 -15.17294759 6.2936669 -10.75 1.625 C-7.11848584 -0.52089473 -4.06153333 -0.7692298 0 0 Z " fill="#1D4B9D" transform="translate(920,205)"/>
<path d="M0 0 C3.66195861 1.59215592 6.20204902 3.40409804 8 7 C8.55075507 15.54588291 6.89281034 23.80181103 5.4375 32.1875 C5.16851028 33.76938977 4.89988142 35.35134095 4.6315918 36.93334961 C2.36846824 50.19347779 -0.05600427 63.42499201 -2.55102539 76.64331055 C-4.19711948 85.40154726 -5.70329587 94.16596616 -7.01408386 102.98146057 C-7.89505403 108.79010805 -7.89505403 108.79010805 -9 111 C-9.30485617 112.72349377 -9.56754187 114.45447848 -9.8125 116.1875 C-10.75809111 122.55965501 -11.8276541 128.90445215 -12.9375 135.25 C-13.19793091 136.73983398 -13.19793091 136.73983398 -13.46362305 138.25976562 C-14.63106822 144.92218891 -15.80895695 151.58276376 -16.98925781 158.24291992 C-18.03417975 164.15516973 -19.02964044 170.07509866 -20 176 C-22.25390625 176.26953125 -22.25390625 176.26953125 -25 176 C-26.96484375 174.26171875 -26.96484375 174.26171875 -28.9375 171.6875 C-30.10539062 170.17929687 -30.10539062 170.17929687 -31.296875 168.640625 C-32.20093035 167.42932678 -33.10173274 166.21559672 -34 165 C-34.51240234 164.30841797 -35.02480469 163.61683594 -35.55273438 162.90429688 C-37.87006146 159.76973491 -40.18103498 156.63069167 -42.48071289 153.4831543 C-46.6813694 147.74310227 -50.98777167 142.09849901 -55.375 136.5 C-59.72953409 130.94304571 -63.9867413 125.34364768 -68.1015625 119.60546875 C-70.61917464 116.1502274 -73.24281221 112.7809901 -75.86376953 109.40380859 C-79.70183 104.43477451 -83.4150873 99.37761619 -87.125 94.3125 C-91.44519312 88.41453248 -95.82320334 82.61191814 -100.453125 76.953125 C-101.86898997 75.16541671 -103.13991267 73.35278035 -104.375 71.4375 C-105.77001893 68.90826598 -105.77001893 68.90826598 -108 68 C-108.05607422 69.14662109 -108.05607422 69.14662109 -108.11328125 70.31640625 C-108.55101706 77.44892506 -109.56462214 84.20883273 -111.046875 91.19140625 C-112.38564627 97.71864063 -113.41892759 104.3012721 -114.5 110.875 C-114.93465236 113.51045688 -115.36970073 116.14584828 -115.8046875 118.78125 C-116.01061523 120.0290625 -116.21654297 121.276875 -116.42871094 122.5625 C-117.78962511 130.75124855 -119.21690166 138.92876954 -120.77734375 147.08203125 C-120.97203247 148.1021228 -120.97203247 148.1021228 -121.1706543 149.14282227 C-121.42861283 150.48886755 -121.68912595 151.83442619 -121.95239258 153.17944336 C-122.79701453 157.58805164 -123.33386606 161.97663167 -123.8125 166.4375 C-124.66070251 172.67428315 -126.55890559 177.45265931 -131 182 C-135.34037059 184.77675882 -140.01229814 184.80029576 -145 184 C-148.38935511 181.45798367 -150.44191891 178.91282807 -152 175 C-152.23984376 167.51915876 -150.46912758 160.24519164 -148.69140625 153.03125 C-147.94941093 149.77820837 -147.55169291 146.61118912 -147.26000977 143.29394531 C-147.00151198 141.01333951 -146.59618521 138.82391627 -146.125 136.578125 C-144.82555114 130.21754183 -143.69503882 123.82958909 -142.5625 117.4375 C-142.23100952 115.57424072 -142.23100952 115.57424072 -141.89282227 113.67333984 C-140.61794354 106.50243897 -139.35159666 99.33005744 -138.09179688 92.15649414 C-137.1056267 86.55832562 -136.08425152 80.96676738 -135.0625 75.375 C-132.48736014 61.25208195 -129.99960594 47.11516262 -127.671875 32.94921875 C-127.55891586 32.26368927 -127.44595673 31.57815979 -127.32957458 30.87185669 C-126.76963255 27.47317891 -126.21298599 24.07402685 -125.66235352 20.67382812 C-125.46053467 19.44470703 -125.25871582 18.21558594 -125.05078125 16.94921875 C-124.87200439 15.84924561 -124.69322754 14.74927246 -124.5090332 13.6159668 C-124 11 -124 11 -123 9 C-120.3515625 8.5625 -120.3515625 8.5625 -117 9 C-114.68919233 11.01187362 -113.08757071 13.47523451 -111.375 16 C-110.32083062 17.47953597 -109.26612836 18.95869237 -108.2109375 20.4375 C-107.67823242 21.19804687 -107.14552734 21.95859375 -106.59667969 22.7421875 C-104.13877458 26.21783068 -101.56846751 29.60574278 -99 33 C-97.99937411 34.33286368 -96.99937589 35.66619881 -96 37 C-95.2575 37.99 -95.2575 37.99 -94.5 39 C-66 77 -66 77 -64.4987793 79.00170898 C-63.50295256 80.3294239 -62.50702227 81.65706116 -61.51098633 82.98461914 C-58.94626262 86.40327116 -56.38358147 89.82342595 -53.82421875 93.24609375 C-52.77868576 94.64325905 -51.7331135 96.04039496 -50.6875 97.4375 C-49.93871582 98.43934326 -49.93871582 98.43934326 -49.17480469 99.46142578 C-45.89678599 103.83686813 -42.55298061 108.15132392 -39.109375 112.3984375 C-38 114 -38 114 -38 116 C-37.34 116 -36.68 116 -36 116 C-35.87044922 114.77216797 -35.87044922 114.77216797 -35.73828125 113.51953125 C-34.09917738 99.24880123 -31.50387814 85.13960087 -29 71 C-28.64963474 69.01628528 -28.29927716 67.03256919 -27.94923401 65.04879761 C-27.70195095 63.64804415 -27.454335 62.24734942 -27.20640564 60.84671021 C-26.49369915 56.81643544 -25.78897713 52.78491149 -25.09301758 48.75170898 C-24.28808266 44.0933672 -23.46413931 39.43866319 -22.63037109 34.78540039 C-22.29079247 32.8717846 -21.95755298 30.95703404 -21.63037109 29.04125977 C-21.14746644 26.22097243 -20.64234945 23.40542563 -20.1328125 20.58984375 C-19.99303986 19.74389145 -19.85326721 18.89793915 -19.70925903 18.02635193 C-18.45289103 11.28507991 -15.76295866 6.15766704 -11.25 1 C-7.5631411 -0.63860395 -3.95959405 -0.52416809 0 0 Z " fill="#F9FBFC" transform="translate(285,170)"/>
<path d="M0 0 C42.06051664 9.75480444 88.01501087 12.3424704 130.74609375 5.01220703 C131.88836426 4.81933105 133.03063477 4.62645508 134.20751953 4.42773438 C149.19927398 1.954578 149.19927398 1.954578 163.70654297 -2.41943359 C166.11631194 -3.09096127 168.25646153 -3.08090381 170.74609375 -2.98779297 C168.87450403 5.42607022 165.73377609 12.52827684 161.62109375 20.07470703 C161.07066406 21.1053125 160.52023437 22.13591797 159.953125 23.19775391 C158.94498006 25.08400051 157.93233325 26.96785351 156.91357422 28.84838867 C156.17057918 30.22546207 155.44586125 31.61267203 154.74609375 33.01220703 C134.3820374 38.86315925 112.91219374 39.35674562 91.87768555 39.27294922 C88.68193662 39.26220146 85.48674806 39.27293881 82.29101562 39.28564453 C63.59536172 39.29974477 45.3194972 37.66193148 26.87109375 34.69970703 C26.20029785 34.59337952 25.52950195 34.487052 24.83837891 34.37750244 C15.76265308 32.93409858 6.73247172 31.31772943 -2.25390625 29.38720703 C-3.15995605 29.19344482 -4.06600586 28.99968262 -4.99951172 28.80004883 C-10.30006274 27.60876083 -15.19491014 25.98762456 -20.25390625 24.01220703 C-28.89874792 21.32125632 -37.86670507 19.98852209 -46.77636719 18.49511719 C-51.76657291 17.65103092 -56.6664323 16.73175501 -61.56640625 15.44970703 C-67.93745698 13.9054656 -74.37737905 13.15184469 -80.87890625 12.38720703 C-82.4244519 12.20242798 -82.4244519 12.20242798 -84.0012207 12.01391602 C-100.75068004 10.14540413 -117.53205476 9.82558545 -134.37109375 9.8269043 C-137.51445721 9.82469963 -140.6574785 9.80640082 -143.80078125 9.78759766 C-154.79588913 9.75809669 -165.4081998 10.10176074 -176.25390625 12.01220703 C-178.92677793 7.70917224 -180.71191692 3.52092265 -182.37890625 -1.23779297 C-182.77746826 -2.36689087 -182.77746826 -2.36689087 -183.18408203 -3.51879883 C-184.95617963 -8.70467508 -186.05374886 -13.48346478 -186.25390625 -18.98779297 C-122.18578168 -24.07726158 -62.11678018 -14.44743997 0 0 Z " fill="#1D4C9D" transform="translate(212.25390625,396.98779296875)"/>
<path d="M0 0 C3.01476557 1.76458201 5.41326678 3.82653357 7 7 C7.56281838 13.43184015 6.54700203 19.5355909 5.25 25.8125 C5.01410156 27.00262695 5.01410156 27.00262695 4.7734375 28.21679688 C4.19068174 31.14626525 3.59492332 34.07297727 3 37 C0.07527873 51.46136512 -2.72396729 65.94378275 -5.45678711 80.4425354 C-7.32491995 90.34839007 -9.23508757 100.2348851 -11.34399414 110.0925293 C-14.62636769 125.57844276 -16.91355141 141.80434405 -8 156 C-3.72097085 161.463163 1.23878121 164.38049478 8.18969727 165.28491211 C10.44784895 165.40077226 12.67685826 165.41668081 14.9375 165.375 C15.73019287 165.36557373 16.52288574 165.35614746 17.33959961 165.34643555 C23.02111342 165.19961582 27.86435476 164.5626351 33 162 C33.73089844 161.67128906 34.46179688 161.34257812 35.21484375 161.00390625 C49.05332197 154.16746145 55.12117681 142.0405505 60.43359375 128.2890625 C64.16706919 117.19331306 66.18255572 105.71058045 68.37060547 94.23144531 C69.17560194 90.0984223 70.04764026 85.98133035 70.92553711 81.86328125 C72.75792801 73.26670607 74.4607872 64.66496469 75.9375 56 C77.47028662 47.02508912 79.03067365 38.05608836 80.66921997 29.09985352 C80.92901599 27.67142898 81.18548907 26.24239563 81.43844604 24.81274414 C81.79524826 22.79923972 82.16384654 20.7882166 82.53515625 18.77734375 C82.745354 17.61452881 82.95555176 16.45171387 83.17211914 15.25366211 C84.70737189 9.21995129 87.23402183 5.0040173 92.03515625 1.13671875 C95.56508633 -0.90544756 97.98352609 -0.58303653 102 0 C106.16636339 1.75913121 108.24086879 3.83363661 110 8 C110.30463195 14.07277172 109.52188185 19.56158861 108.3125 25.5 C108.13388428 26.4079834 107.95526855 27.3159668 107.77124023 28.25146484 C106.22256727 36.0633786 104.56962424 43.85388386 102.92480469 51.64599609 C101.35947321 59.11991945 99.93346407 66.61319086 98.5625 74.125 C96.74794531 84.03298744 94.88178041 93.92922843 92.9375 103.8125 C92.58764038 105.62548584 92.58764038 105.62548584 92.23071289 107.47509766 C89.94414123 118.99764101 87.1576261 130.38617572 82.3125 141.125 C81.9736377 141.88143799 81.63477539 142.63787598 81.28564453 143.41723633 C78.04535939 150.36988645 73.93422255 156.11617236 69 162 C68.52304687 162.6496875 68.04609375 163.299375 67.5546875 163.96875 C60.76038054 172.91933402 49.34338122 179.18263271 39 183 C37.49759766 183.5878125 37.49759766 183.5878125 35.96484375 184.1875 C27.27885143 187.05956176 18.90828502 187.41601692 9.8125 187.5 C8.63695557 187.51844971 7.46141113 187.53689941 6.25024414 187.5559082 C-6.60608446 187.46483089 -17.72789181 183.86371081 -27.15625 174.96484375 C-39.61435977 161.78620898 -40.56529768 146.99513472 -40.25 129.640625 C-39.96673565 121.27299608 -38.61333506 113.20009751 -37 105 C-36.81244141 104.02627441 -36.62488281 103.05254883 -36.43164062 102.04931641 C-34.53417611 92.2288629 -32.52912293 82.43239758 -30.42700195 72.65380859 C-30.26546631 71.90180176 -30.10393066 71.14979492 -29.9375 70.375 C-29.69809692 69.2605249 -29.69809692 69.2605249 -29.45385742 68.12353516 C-27.9046581 60.78389879 -26.63186941 53.39930318 -25.39428711 46.00146484 C-24.55425377 41.0124702 -23.59234737 36.08759767 -22.45996094 31.15722656 C-21.85292307 28.31020609 -21.43691585 25.44793954 -21.01245117 22.5690918 C-19.6708441 13.76851228 -18.02762863 7.58011434 -11.1875 1.5 C-7.26628295 -0.34527861 -4.25297006 -1.00616986 0 0 Z " fill="#1D4B9D" transform="translate(659,203)"/>
<path d="M0 0 C2.75329021 1.79562405 4.52627461 3.05254922 6 6 C6.99965677 14.88219626 5.11441705 23.22708494 3.2734375 31.84375 C1.82033619 38.70035523 0.61360711 45.59919791 -0.61108398 52.49920654 C-4.02877216 71.72933431 -4.02877216 71.72933431 -6.125 80.0625 C-7.72688587 86.5030041 -8.88295691 92.94825953 -9.9375 99.5 C-12.37112076 114.61570141 -15.44551487 129.58293885 -18.58203125 144.56640625 C-18.84902832 145.84555908 -19.11602539 147.12471191 -19.39111328 148.44262695 C-19.90544471 150.90154743 -20.4231114 153.35977373 -20.94482422 155.81713867 C-22.36135177 162.57218648 -23.5726072 169.32047325 -24.5637207 176.15136719 C-24.96636264 178.78036891 -25.47839852 181.39199262 -26 184 C-34.25 184 -42.5 184 -51 184 C-51 173.88373752 -51 173.88373752 -49.828125 168.76953125 C-49.57804688 167.64901367 -49.32796875 166.52849609 -49.0703125 165.37402344 C-48.79960938 164.1987207 -48.52890625 163.02341797 -48.25 161.8125 C-47.69008793 159.29354978 -47.13282008 156.77401043 -46.578125 154.25390625 C-46.16916992 152.39789795 -46.16916992 152.39789795 -45.75195312 150.50439453 C-44.73589141 145.76915106 -43.84331873 141.01864203 -43 136.25 C-42.84748779 135.39035645 -42.69497559 134.53071289 -42.5378418 133.64501953 C-42.21102244 131.80131216 -41.8844542 129.95756026 -41.55810547 128.11376953 C-40.4262378 121.79887877 -39.2440863 115.49324272 -38.0625 109.1875 C-37.93425842 108.50284668 -37.80601685 107.81819336 -37.67388916 107.11279297 C-35.052894 93.13964598 -32.27364154 79.20008634 -29.4453125 65.26757812 C-27.51583708 55.75302725 -25.65615189 46.23860843 -24.00561523 36.67138672 C-23.27262102 32.44970476 -22.45237398 28.27169233 -21.453125 24.10546875 C-21.11100624 22.51579622 -20.84227014 20.91008665 -20.609375 19.30078125 C-19.68422828 13.0217762 -18.41765283 7.75567903 -14 3 C-9.32261151 0.22821423 -5.40493305 -0.70063947 0 0 Z " fill="#1E4C9C" transform="translate(984,203)"/>
<path d="M0 0 C-0.66 0.33 -1.32 0.66 -2 1 C-1.505 1.495 -1.505 1.495 -1 2 C-0.625 4.75 -0.625 4.75 -1 8 C-3.5 10.875 -3.5 10.875 -6 13 C-6.66 12.67 -7.32 12.34 -8 12 C-6.02 9.03 -4.04 6.06 -2 3 C-11.405 5.97 -11.405 5.97 -21 9 C-21.495 8.01 -21.495 8.01 -22 7 C-20.35 6.67 -18.7 6.34 -17 6 C-17 5.34 -17 4.68 -17 4 C-17.86310791 4.1429248 -18.72621582 4.28584961 -19.61547852 4.43310547 C-30.11005628 6.01847278 -40.33944726 6.23809711 -50.9375 6.125 C-52.60351016 6.11493544 -54.2695263 6.10581582 -55.93554688 6.09765625 C-59.95718329 6.07595177 -63.97852244 6.04162026 -68 6 C-68 5.67 -68 5.34 -68 5 C-67.23671387 4.98018066 -66.47342773 4.96036133 -65.68701172 4.93994141 C-35.77595454 4.64236147 -35.77595454 4.64236147 -6.4609375 -0.51171875 C-3.89419567 -1.02099292 -2.44454345 -0.85501637 0 0 Z " fill="#D9E7F4" transform="translate(365,431)"/>
<path d="M0 0 C0.33 0 0.66 0 1 0 C2.33269635 6.1742641 1.45328216 11.12925825 0.125 17.25 C-1.24465399 23.91468421 -2.44947903 30.42481902 -2.82421875 37.234375 C-3 39 -3 39 -4 40 C-4.07258946 42.18639453 -4.08373783 44.37500389 -4.0625 46.5625 C-4.05347656 47.76003906 -4.04445313 48.95757812 -4.03515625 50.19140625 C-4.02355469 51.11824219 -4.01195312 52.04507813 -4 53 C-3.67 53 -3.34 53 -3 53 C-2.87625 53.804375 -2.7525 54.60875 -2.625 55.4375 C-2.41875 56.283125 -2.2125 57.12875 -2 58 C-1.34 58.33 -0.68 58.66 0 59 C0.33 58.01 0.66 57.02 1 56 C2 59 2 59 2 61 C3.65 61.33 5.3 61.66 7 62 C7 62.33 7 62.66 7 63 C-0.78460886 62.96608014 -0.78460886 62.96608014 -3.67578125 60.66796875 C-8.09420033 55.31112438 -8.34016199 51.66763296 -8 45 C-7.6360455 41.98876933 -7.08891962 39.03005547 -6.50390625 36.0546875 C-6.35090561 35.24057404 -6.19790497 34.42646057 -6.04026794 33.587677 C-5.555324 31.01526369 -5.05936061 28.44513544 -4.5625 25.875 C-4.07154943 23.29732839 -3.5829098 20.71923237 -3.09544373 18.14089966 C-2.79301231 16.54542681 -2.48819734 14.95040321 -2.18055725 13.35592651 C-1.32989259 8.9151738 -0.60334785 4.48127274 0 0 Z " fill="#365B99" transform="translate(777,327)"/>
<path d="M0 0 C0.33 0.66 0.66 1.32 1 2 C-0.73173537 6.19262247 -2.77444044 8.87849075 -6 12 C-7.30238365 14.2140522 -8 15.43292258 -8 18 C-8.969375 18.2475 -9.93875 18.495 -10.9375 18.75 C-11.948125 19.1625 -12.95875 19.575 -14 20 C-14.60061233 21.90178785 -14.60061233 21.90178785 -15 24 C-17.5625 26.25 -17.5625 26.25 -20 28 C-19.34 28.99 -18.68 29.98 -18 31 C-18.598125 31.103125 -19.19625 31.20625 -19.8125 31.3125 C-22.08110966 31.84018987 -22.08110966 31.84018987 -23.5625 33.5625 C-24.036875 34.036875 -24.51125 34.51125 -25 35 C-25.99 35 -26.98 35 -28 35 C-28 35.66 -28 36.32 -28 37 C-28.66 36.67 -29.32 36.34 -30 36 C-25.75985401 30.74889327 -21.516443 25.51725826 -17 20.5 C-11.06023925 13.89498605 -5.54141686 6.93925174 0 0 Z " fill="#2F5596" transform="translate(1042,309)"/>
<path d="M0 0 C0.495 1.485 0.495 1.485 1 3 C-0.1796875 4.6484375 -0.1796875 4.6484375 -1.875 6.375 C-4.58496902 9.3144172 -5.23870865 11.08478733 -6 15 C-8.25 16.5 -8.25 16.5 -11 18 C-13.53065222 20.29524271 -15.59192274 22.18384548 -17.125 25.25 C-17.41375 25.8275 -17.7025 26.405 -18 27 C-21.60183315 28.20061105 -24.77688588 28.02185426 -28.51171875 27.87890625 C-29.23994339 27.85529526 -29.96816803 27.83168427 -30.71846008 27.80735779 C-33.0416784 27.7308565 -35.36455193 27.6467744 -37.6875 27.5625 C-39.26365507 27.50926573 -40.83982691 27.45652542 -42.41601562 27.40429688 C-46.2775616 27.27525978 -50.13881566 27.13942375 -54 27 C-54 26.67 -54 26.34 -54 26 C-53.06841064 26.04825928 -52.13682129 26.09651855 -51.17700195 26.14624023 C-32.74550209 27.77880273 -32.74550209 27.77880273 -16.1953125 21.9453125 C-13.34783747 18.91321316 -11.15227336 15.5510763 -9.12304688 11.9296875 C-7.43670196 9.03210703 -5.34992526 6.62210541 -3.1875 4.0625 C-2.12165499 2.71096457 -1.05762491 1.3579776 0 0 Z " fill="#DEEEFA" transform="translate(992,408)"/>
<path d="M0 0 C0.66 0.66 1.32 1.32 2 2 C1.83436568 5.22986927 1.44722757 6.58162582 -0.9375 8.8125 C-3 10 -3 10 -5 10 C-5 10.66 -5 11.32 -5 12 C-5.66 12 -6.32 12 -7 12 C-7 12.99 -7 13.98 -7 15 C-6.34 15.33 -5.68 15.66 -5 16 C-5.33 17.32 -5.66 18.64 -6 20 C-6.556875 20.12375 -7.11375 20.2475 -7.6875 20.375 C-10.22114364 21.05976855 -12.57921032 21.99133763 -15 23 C-13.29647399 17.92998211 -10.40136888 13.69576679 -7.5 9.25 C-6.75169922 8.08017578 -6.75169922 8.08017578 -5.98828125 6.88671875 C-5.26705078 5.77490234 -5.26705078 5.77490234 -4.53125 4.640625 C-4.09361328 3.96547852 -3.65597656 3.29033203 -3.20507812 2.59472656 C-2 1 -2 1 0 0 Z " fill="#2A5399" transform="translate(84,183)"/>
<path d="M0 0 C0.33 0.66 0.66 1.32 1 2 C-0.47169811 5.73584906 -0.47169811 5.73584906 -3 7 C-3 8.32 -3 9.64 -3 11 C-1.35 11 0.3 11 2 11 C2 11.33 2 11.66 2 12 C-1.3 12 -4.6 12 -8 12 C-8 12.66 -8 13.32 -8 14 C1.57 14 11.14 14 21 14 C21 14.33 21 14.66 21 15 C10.11 15 -0.78 15 -12 15 C-8.07205456 9.76273941 -4.27498403 4.88569603 0 0 Z " fill="#2D5497" transform="translate(950,419)"/>
<path d="M0 0 C0 0.99 0 1.98 0 3 C-1 4 -1 4 -3.5625 4.0625 C-4.7690625 4.0315625 -4.7690625 4.0315625 -6 4 C-6 4.66 -6 5.32 -6 6 C-7.175625 6.2165625 -7.175625 6.2165625 -8.375 6.4375 C-10.96421018 6.87798925 -10.96421018 6.87798925 -13 8 C-15.39824355 7.9362015 -17.79478371 7.79978875 -20.1875 7.625 C-22.12689453 7.48964844 -22.12689453 7.48964844 -24.10546875 7.3515625 C-27.77174664 7.02060462 -31.36326528 6.55659494 -35 6 C-35 5.34 -35 4.68 -35 4 C-34.35039307 4.01571045 -33.70078613 4.0314209 -33.03149414 4.04760742 C-30.04192069 4.11059337 -27.05248751 4.14919021 -24.0625 4.1875 C-23.04091797 4.21263672 -22.01933594 4.23777344 -20.96679688 4.26367188 C-14.3621951 4.32697477 -9.10968949 3.48462329 -3 1 C-2.01 0.67 -1.02 0.34 0 0 Z " fill="#2C5092" transform="translate(695,364)"/>
<path d="M0 0 C2.6953125 -0.34375 2.6953125 -0.34375 6 0 C8.5546875 2.40625 8.5546875 2.40625 10.875 5.5 C11.65617187 6.5209375 12.43734375 7.541875 13.2421875 8.59375 C13.82226562 9.3878125 14.40234375 10.181875 15 11 C14.01 11.33 13.02 11.66 12 12 C9 10 9 10 8.3125 6.875 C8.209375 5.92625 8.10625 4.9775 8 4 C7.01 4 6.02 4 5 4 C5.66 5.98 6.32 7.96 7 10 C6.34 10 5.68 10 5 10 C4.34 10.66 3.68 11.32 3 12 C2.875 5.25 2.875 5.25 4 3 C3.34 3 2.68 3 2 3 C1.67 4.32 1.34 5.64 1 7 C0.67 4.69 0.34 2.38 0 0 Z " fill="#174594" transform="translate(479,214)"/>
<path d="M0 0 C5.61 0 11.22 0 17 0 C17 0.66 17 1.32 17 2 C17.99 1.835 18.98 1.67 20 1.5 C26.94880525 0.60622251 34.00882501 0.92364008 41 1 C37.54583124 3.10649383 34.80978806 3.25736448 30.80078125 3.265625 C28.98610352 3.26949219 28.98610352 3.26949219 27.13476562 3.2734375 C25.87341797 3.26570313 24.61207031 3.25796875 23.3125 3.25 C22.07048828 3.25773437 20.82847656 3.26546875 19.54882812 3.2734375 C12.71154702 3.25894406 6.60127013 2.80229694 0 1 C0 0.67 0 0.34 0 0 Z " fill="#DBECF8" transform="translate(294,270)"/>
<path d="M0 0 C-3.37220401 2.248136 -6.63804748 3.16868014 -10.5 4.1875 C-11.51513672 4.47270508 -11.51513672 4.47270508 -12.55078125 4.76367188 C-15.89960881 5.65867411 -17.64298405 6.11900532 -21 5 C-22.47965926 4.85426942 -23.96403843 4.75336732 -25.44921875 4.68359375 C-26.29677734 4.64169922 -27.14433594 4.59980469 -28.01757812 4.55664062 C-28.89865234 4.51732422 -29.77972656 4.47800781 -30.6875 4.4375 C-32.02651367 4.37272461 -32.02651367 4.37272461 -33.39257812 4.30664062 C-35.59490108 4.20064647 -37.79733473 4.09857949 -40 4 C-40 3.67 -40 3.34 -40 3 C-39.09459473 2.970271 -39.09459473 2.970271 -38.17089844 2.93994141 C-23.21758827 2.52335423 -23.21758827 2.52335423 -8.4375 0.40234375 C-5.5953697 -0.06678994 -2.8754127 -0.06269068 0 0 Z " fill="#C7DDF3" transform="translate(292,478)"/>
<path d="M0 0 C0.62890625 1.82421875 0.62890625 1.82421875 1 4 C-0.59566022 6.1759003 -2.17315015 8.03800054 -4 10 C-5.02469404 11.2050611 -6.04550868 12.41343126 -7.0625 13.625 C-11.49285222 18.7614752 -11.49285222 18.7614752 -14 21 C-14.66 21 -15.32 21 -16 21 C-16.33 21.99 -16.66 22.98 -17 24 C-17.66 23.67 -18.32 23.34 -19 23 C-18.29875 22.17757813 -17.5975 21.35515625 -16.875 20.5078125 C-11.1352658 13.75989739 -5.48303813 6.95984496 0 0 Z " fill="#DAE6F4" transform="translate(1054,334)"/>
<path d="M0 0 C0.66 0 1.32 0 2 0 C3.19876651 5.44893869 2.91360308 8.22169095 0 13 C-0.99 13 -1.98 13 -3 13 C-3.33 13.66 -3.66 14.32 -4 15 C-4.66 15 -5.32 15 -6 15 C-4.40109514 9.80355921 -2.25861997 4.93387858 0 0 Z " fill="#275498" transform="translate(45,247)"/>
<path d="M0 0 C0.33 0 0.66 0 1 0 C1.05460198 1.8746679 1.09306244 3.74980905 1.125 5.625 C1.14820313 6.66914063 1.17140625 7.71328125 1.1953125 8.7890625 C0.98664952 12.21948195 0.12248757 14.76082159 -1 18 C-1.63561547 20.94276737 -2.13175355 23.90545505 -2.625 26.875 C-2.7590625 27.65875 -2.893125 28.4425 -3.03125 29.25 C-3.35836422 31.16595474 -3.67976884 33.08288282 -4 35 C-4.33 35 -4.66 35 -5 35 C-5.23179063 27.80701325 -4.36804033 21.19027706 -3.0625 14.125 C-2.88009766 13.09375 -2.69769531 12.0625 -2.50976562 11 C-1.15977502 3.47932505 -1.15977502 3.47932505 0 0 Z " fill="#274C8D" transform="translate(172,270)"/>
<path d="M0 0 C0.33 0 0.66 0 1 0 C1 1.65 1 3.3 1 5 C0.01 5.33 -0.98 5.66 -2 6 C-2.68433959 7.32434948 -3.34909953 8.65889941 -4 10 C-5.69140625 11.6328125 -5.69140625 11.6328125 -7.5625 13.125 C-10.21025666 15.20903634 -10.21025666 15.20903634 -12 18 C-12.99 17.67 -13.98 17.34 -15 17 C-14.33613281 16.27554688 -13.67226562 15.55109375 -12.98828125 14.8046875 C-7.34431217 8.66233172 -7.34431217 8.66233172 -1.9375 2.3125 C-1.298125 1.549375 -0.65875 0.78625 0 0 Z " fill="#2F5394" transform="translate(186,49)"/>
<path d="M0 0 C0.33 0 0.66 0 1 0 C1.054138 2.24973447 1.09285491 4.49984383 1.125 6.75 C1.14820313 8.00296875 1.17140625 9.2559375 1.1953125 10.546875 C1.0098572 13.82572462 0.59451444 15.24583869 -1 18 C-1.38749213 20.32495277 -1.72982839 22.65851268 -2 25 C-2.66 25 -3.32 25 -4 25 C-1.98484848 1.98484848 -1.98484848 1.98484848 0 0 Z " fill="#2B5193" transform="translate(588,193)"/>
<path d="M0 0 C0.66 0 1.32 0 2 0 C1.85851011 1.6045556 1.71164314 3.20863767 1.5625 4.8125 C1.48128906 5.70582031 1.40007813 6.59914063 1.31640625 7.51953125 C1 10 1 10 0 13 C-2.23046875 13.3125 -2.23046875 13.3125 -5 13 C-7.23828125 10.8125 -7.23828125 10.8125 -9.3125 8 C-10.00988281 7.071875 -10.70726562 6.14375 -11.42578125 5.1875 C-11.94527344 4.465625 -12.46476563 3.74375 -13 3 C-12.01 3 -11.02 3 -10 3 C-9.67 3.99 -9.34 4.98 -9 6 C-8.34 6 -7.68 6 -7 6 C-5.29319053 7.62553283 -3.62339805 9.29115995 -2 11 C-1.24758891 7.34543185 -0.59950296 3.68266103 0 0 Z " fill="#2C518F" transform="translate(582,368)"/>
<path d="M0 0 C0.33 0.99 0.66 1.98 1 3 C-8.41002278 13.55808656 -8.41002278 13.55808656 -13 18 C-12.835 17.401875 -12.67 16.80375 -12.5 16.1875 C-11.8885876 13.88655664 -11.8885876 13.88655664 -12 11 C-11 8.8125 -11 8.8125 -10 7 C-9.67 7.66 -9.34 8.32 -9 9 C-8.2575 8.2575 -7.515 7.515 -6.75 6.75 C-4.5 4.5 -2.25 2.25 0 0 Z " fill="#2A5192" transform="translate(1057,328)"/>
<path d="M0 0 C3.85943132 3.69162996 3.85943132 3.69162996 4.203125 6.890625 C4.35496135 14.53305452 2.79198879 21.59737963 1 29 C0.67 29 0.34 29 0 29 C-0.10321363 23.83931861 0.15022855 19.09862871 1 14 C1.22150531 9.22059703 1.2029868 4.66157386 0 0 Z " fill="#2A4E8D" transform="translate(925,208)"/>
<path d="M0 0 C2.31 0.33 4.62 0.66 7 1 C7.79953138 4.28696233 8.09658936 5.71023192 7 9 C4 5.25 4 5.25 4 3 C3.34 3 2.68 3 2 3 C1.34 8.28 0.68 13.56 0 19 C-2.25383903 14.49232193 -1.90337219 11.98286077 -1.125 7.25 C-1.02058594 6.55261719 -0.91617188 5.85523438 -0.80859375 5.13671875 C-0.55032364 3.42274441 -0.27667048 1.7111005 0 0 Z " fill="#2B5194" transform="translate(811,270)"/>
<path d="M0 0 C4.71394473 -0.02485249 9.4278507 -0.04293186 14.1418457 -0.05493164 C15.74308945 -0.05993805 17.34432867 -0.06674515 18.94555664 -0.07543945 C21.25668458 -0.08766764 23.56775169 -0.09326536 25.87890625 -0.09765625 C26.58648575 -0.10281754 27.29406525 -0.10797882 28.02308655 -0.11329651 C32.46408171 -0.11378966 36.63302685 0.27923744 41 1 C41 1.33 41 1.66 41 2 C21.695 1.505 21.695 1.505 2 1 C1.67 1.99 1.34 2.98 1 4 C0.34 3.67 -0.32 3.34 -1 3 C-0.67 2.01 -0.34 1.02 0 0 Z " fill="#E0EDFA" transform="translate(37,413)"/>
<path d="M0 0 C11.4063601 0.5424802 22.6745023 1.54001719 34 3 C34 3.33 34 3.66 34 4 C30.83335334 4.02940458 27.66674253 4.04693315 24.5 4.0625 C23.613125 4.07087891 22.72625 4.07925781 21.8125 4.08789062 C16.44176914 4.10763596 11.31366337 3.78835893 6 3 C6 2.34 6 1.68 6 1 C4.02 1 2.04 1 0 1 C0 0.67 0 0.34 0 0 Z " fill="#CADAEC" transform="translate(110,407)"/>
<path d="M0 0 C0.66 0.99 1.32 1.98 2 3 C1.505 3.61875 1.01 4.2375 0.5 4.875 C-1.19222773 6.83880904 -1.19222773 6.83880904 -1 9 C-1.94875 9.5775 -2.8975 10.155 -3.875 10.75 C-7.4294113 13.30917613 -8.04949793 14.81779089 -9 19 C-9.99 18.34 -10.98 17.68 -12 17 C-8.04 11.39 -4.08 5.78 0 0 Z " fill="#315695" transform="translate(112,141)"/>
<path d="M0 0 C-2.97933262 6.24241121 -6.7903685 12.39147983 -12 17 C-12 15.02 -12 13.04 -12 11 C-10.35 10.67 -8.7 10.34 -7 10 C-6.9175 9.0925 -6.835 8.185 -6.75 7.25 C-5.88469713 3.50035425 -4.29387362 0 0 0 Z " fill="#305794" transform="translate(363,434)"/>
<path d="M0 0 C0.66 0.33 1.32 0.66 2 1 C1.67 2.98 1.34 4.96 1 7 C0.34 7 -0.32 7 -1 7 C-1.33 8.32 -1.66 9.64 -2 11 C-2.66 11 -3.32 11 -4 11 C-4.33 10.34 -4.66 9.68 -5 9 C-5.99 9 -6.98 9 -8 9 C-6.85459775 7.68712379 -5.70866567 6.37470979 -4.5625 5.0625 C-3.92441406 4.33160156 -3.28632812 3.60070312 -2.62890625 2.84765625 C-1.77458541 1.87860647 -0.91348825 0.91348825 0 0 Z " fill="#27529A" transform="translate(1005,354)"/>
<path d="M0 0 C3.3 0.33 6.6 0.66 10 1 C10.33 1.99 10.66 2.98 11 4 C10.01 4.495 10.01 4.495 9 5 C7.86649466 7.01669827 7.86649466 7.01669827 7 9 C5.83037314 7.69013727 4.66437056 6.3770374 3.5 5.0625 C2.8503125 4.33160156 2.200625 3.60070312 1.53125 2.84765625 C0 1 0 1 0 0 Z " fill="#315597" transform="translate(62,451)"/>
<path d="M0 0 C0.33 0 0.66 0 1 0 C1.63023057 17.50640478 1.63023057 17.50640478 -2 25 C-2.66 25.33 -3.32 25.66 -4 26 C-3.20376222 17.24138438 -1.57802387 8.64439492 0 0 Z " fill="#D3E3F2" transform="translate(603,255)"/>
<path d="M0 0 C-0.99 0.495 -0.99 0.495 -2 1 C-1.67 1.33 -1.34 1.66 -1 2 C-0.625 4.75 -0.625 4.75 -1 8 C-3.5 10.875 -3.5 10.875 -6 13 C-6.66 12.67 -7.32 12.34 -8 12 C-6.02 9.03 -4.04 6.06 -2 3 C-3.32 3.33 -4.64 3.66 -6 4 C-5.67 3.01 -5.34 2.02 -5 1 C-6.32 0.67 -7.64 0.34 -9 0 C-5.62182575 -0.84454356 -3.32534757 -1.10844919 0 0 Z " fill="#BDD1E6" transform="translate(365,431)"/>
<path d="M0 0 C0.66 0.33 1.32 0.66 2 1 C1.34 5.62 0.68 10.24 0 15 C-0.66 15 -1.32 15 -2 15 C-2 19.29 -2 23.58 -2 28 C-2.33 28 -2.66 28 -3 28 C-3.36901501 18.11859816 -2.71667939 9.58923141 0 0 Z " fill="#496A9F" transform="translate(232,177)"/>
<path d="M0 0 C0.66 0 1.32 0 2 0 C2.99 1.98 3.98 3.96 5 6 C4.34 6 3.68 6 3 6 C3 5.34 3 4.68 3 4 C2.34 4 1.68 4 1 4 C0.96261719 4.81984375 0.92523437 5.6396875 0.88671875 6.484375 C0.78810547 8.10085938 0.78810547 8.10085938 0.6875 9.75 C0.62949219 10.81734375 0.57148437 11.8846875 0.51171875 12.984375 C-0.03090154 16.1821068 -0.85071145 17.62598691 -3 20 C-2.69140975 17.22867983 -2.3782967 14.45800014 -2.0625 11.6875 C-1.97548828 10.90181641 -1.88847656 10.11613281 -1.79882812 9.30664062 C-1.71181641 8.54931641 -1.62480469 7.79199219 -1.53515625 7.01171875 C-1.41732788 5.96697388 -1.41732788 5.96697388 -1.29711914 4.90112305 C-1 3 -1 3 0 0 Z " fill="#CADFF0" transform="translate(813,273)"/>
<path d="M0 0 C2.96404505 2.80804268 5.44499019 5.18315774 7 9 C4.125 9.625 4.125 9.625 1 10 C-1 8 -1 8 -1.1875 5 C-1 2 -1 2 0 0 Z " fill="#29549E" transform="translate(804,216)"/>
<path d="M0 0 C0.66 0 1.32 0 2 0 C2 0.66 2 1.32 2 2 C11.57 2 21.14 2 31 2 C31 2.33 31 2.66 31 3 C20.11 3 9.22 3 -2 3 C-1.34 2.01 -0.68 1.02 0 0 Z " fill="#2E5185" transform="translate(940,431)"/>
<path d="M0 0 C0.33 0 0.66 0 1 0 C1 6.27 1 12.54 1 19 C0.01 19.33 -0.98 19.66 -2 20 C-1.85780436 17.79142945 -1.71108153 15.58315013 -1.5625 13.375 C-1.48128906 12.14523437 -1.40007812 10.91546875 -1.31640625 9.6484375 C-1.03336056 6.38467612 -0.58961047 3.22056141 0 0 Z " fill="#315799" transform="translate(280,254)"/>
<path d="M0 0 C1 2 1 2 0.8125 3.875 C-0.23011927 6.6018504 -1.9463852 7.9463852 -4 10 C-4.72159424 11.64363134 -5.39351421 13.31050386 -6 15 C-6.99 16.485 -6.99 16.485 -8 18 C-8.66 18 -9.32 18 -10 18 C-8.64737628 13.25869791 -6.66645646 9.67711421 -3.875 5.625 C-3.15054688 4.56539062 -2.42609375 3.50578125 -1.6796875 2.4140625 C-0.84824219 1.21910156 -0.84824219 1.21910156 0 0 Z " fill="#CDDFEF" transform="translate(243,125)"/>
<path d="M0 0 C0.99 0.33 1.98 0.66 3 1 C3 1.66 3 2.32 3 3 C3.804375 2.979375 4.60875 2.95875 5.4375 2.9375 C8 3 8 3 9 4 C9.66 3.67 10.32 3.34 11 3 C13.125 3.9375 13.125 3.9375 15 5 C14.67 5.33 14.34 5.66 14 6 C14.99 6.66 15.98 7.32 17 8 C10.58008874 7.42934122 4.98410537 5.32655091 -1 3 C-0.67 2.01 -0.34 1.02 0 0 Z " fill="#4368A3" transform="translate(140,505)"/>
<path d="M0 0 C8.89252296 -0.26197285 17.24996282 0.3960652 26 2 C26 2.66 26 3.32 26 4 C23.68715544 3.85973717 21.37472409 3.71264442 19.0625 3.5625 C17.13083984 3.44068359 17.13083984 3.44068359 15.16015625 3.31640625 C12 3 12 3 11 2 C9.15108054 1.76636119 7.29511969 1.58696365 5.4375 1.4375 C4.42558594 1.35371094 3.41367188 1.26992188 2.37109375 1.18359375 C1.19740234 1.09271484 1.19740234 1.09271484 0 1 C0 0.67 0 0.34 0 0 Z " fill="#264B8D" transform="translate(118,381)"/>
<path d="M0 0 C0.66 0 1.32 0 2 0 C0.51194289 5.80342274 -2.59097555 10.17590879 -6 15 C-6.33 13.68 -6.66 12.36 -7 11 C-6.34 11 -5.68 11 -5 11 C-4.34 8.36 -3.68 5.72 -3 3 C-2.01 3 -1.02 3 0 3 C0 2.01 0 1.02 0 0 Z " fill="#2B4E8E" transform="translate(738,345)"/>
<path d="M0 0 C4.04648443 1.34882814 4.95502599 3.34826069 7 7 C6.67 7.99 6.34 8.98 6 10 C5.34 9.01 4.68 8.02 4 7 C2.02 7.99 2.02 7.99 0 9 C0 6.03 0 3.06 0 0 Z " fill="#2B508E" transform="translate(177,238)"/>
<path d="M0 0 C8.60308032 0.44953032 16.65932321 1.86101998 25 4 C25 4.33 25 4.66 25 5 C22.68715544 4.85973717 20.37472409 4.71264442 18.0625 4.5625 C16.13083984 4.44068359 16.13083984 4.44068359 14.16015625 4.31640625 C11 4 11 4 10 3 C8.32115762 2.6068352 6.63149955 2.25914548 4.9375 1.9375 C4.01839844 1.76089844 3.09929687 1.58429688 2.15234375 1.40234375 C1.44207031 1.26957031 0.73179688 1.13679688 0 1 C0 0.67 0 0.34 0 0 Z " fill="#C7D9ED" transform="translate(102,448)"/>
<path d="M0 0 C0.721875 0.78375 1.44375 1.5675 2.1875 2.375 C4.83299041 4.84412438 6.60373611 5.93260278 10 7 C6.1496895 9.56687367 4.41430237 8.83288724 0 8 C-0.144375 7.38125 -0.28875 6.7625 -0.4375 6.125 C-0.93152225 3.96741678 -0.93152225 3.96741678 -2 2 C-1.34 2 -0.68 2 0 2 C0 1.34 0 0.68 0 0 Z " fill="#2A5493" transform="translate(254,339)"/>
<path d="M0 0 C1.04239682 3.12719046 0.97104316 4.29258274 0.44140625 7.44921875 C0.30283203 8.29677734 0.16425781 9.14433594 0.02148438 10.01757812 C-0.12998047 10.89865234 -0.28144531 11.77972656 -0.4375 12.6875 C-0.58509766 13.58017578 -0.73269531 14.47285156 -0.88476562 15.39257812 C-1.25007381 17.59621137 -1.62204888 19.798506 -2 22 C-2.33 22 -2.66 22 -3 22 C-3.19477739 20.37585622 -3.38059458 18.75063577 -3.5625 17.125 C-3.66691406 16.22007812 -3.77132812 15.31515625 -3.87890625 14.3828125 C-4 12 -4 12 -3 10 C-2.34 10 -1.68 10 -1 10 C-1.020625 8.72125 -1.04125 7.4425 -1.0625 6.125 C-1.125 2.25 -1.125 2.25 0 0 Z " fill="#D2E1F0" transform="translate(586,197)"/>
<path d="M0 0 C0.33 0 0.66 0 1 0 C0.67 2.97 0.34 5.94 0 9 C-2.1875 9.375 -2.1875 9.375 -5 9 C-7.08832653 7.17130326 -8.38336791 5.30947441 -10 3 C-10 2.34 -10 1.68 -10 1 C-8.02 1.99 -8.02 1.99 -6 3 C-6 3.99 -6 4.98 -6 6 C-4.35 6.33 -2.7 6.66 -1 7 C-0.67 4.69 -0.34 2.38 0 0 Z " fill="#2C518D" transform="translate(900,372)"/>
<path d="M0 0 C0.33 0 0.66 0 1 0 C1.02687279 1.81242052 1.04633715 3.62495233 1.0625 5.4375 C1.07410156 6.44683594 1.08570313 7.45617187 1.09765625 8.49609375 C1 11 1 11 0 12 C-0.23481693 14.18292774 -0.41363323 16.37203174 -0.5625 18.5625 C-0.64628906 19.76003906 -0.73007812 20.95757812 -0.81640625 22.19140625 C-0.87699219 23.11824219 -0.93757812 24.04507812 -1 25 C-1.33 25 -1.66 25 -2 25 C-2.20705918 16.3725342 -2.21462689 8.40371809 0 0 Z " fill="#A8BFDC" transform="translate(646,317)"/>
<path d="M0 0 C0.33 0 0.66 0 1 0 C1.48350422 7.89723556 -0.32335279 15.33532703 -2 23 C-2.33 23 -2.66 23 -3 23 C-3.41467342 14.98298054 -1.85939879 7.78069851 0 0 Z " fill="#274B8C" transform="translate(751,298)"/>
<path d="M0 0 C0.33 0.99 0.66 1.98 1 3 C-0.99523945 6.42041048 -3.14056091 9.27672468 -6 12 C-6.33 12.66 -6.66 13.32 -7 14 C-8.32 13.67 -9.64 13.34 -11 13 C-10.06027344 11.96939453 -10.06027344 11.96939453 -9.1015625 10.91796875 C-8.28429688 10.01691406 -7.46703125 9.11585938 -6.625 8.1875 C-5.81289062 7.29417969 -5.00078125 6.40085938 -4.1640625 5.48046875 C-1.90927093 3.00367326 -1.90927093 3.00367326 0 0 Z " fill="#315592" transform="translate(1101,239)"/>
<path d="M0 0 C1.08622755 3.25868265 0.91122669 4.39204274 0.22265625 7.66796875 C0.03896484 8.56064453 -0.14472656 9.45332031 -0.33398438 10.37304688 C-0.63272461 11.76620117 -0.63272461 11.76620117 -0.9375 13.1875 C-1.13279297 14.12787109 -1.32808594 15.06824219 -1.52929688 16.03710938 C-2.01265881 18.35960454 -2.5031383 20.68036206 -3 23 C-3.33 23 -3.66 23 -4 23 C-3.67 18.05 -3.34 13.1 -3 8 C-2.34 8 -1.68 8 -1 8 C-1.020625 6.865625 -1.04125 5.73125 -1.0625 4.5625 C-1 1 -1 1 0 0 Z " fill="#D7E5F6" transform="translate(940,340)"/>
<path d="M0 0 C0.33 0 0.66 0 1 0 C1.66 5.61 2.32 11.22 3 17 C0 15 0 15 -0.546875 13.046875 C-0.94964724 8.49245046 -1.04022453 4.50763964 0 0 Z " fill="#BCD0E4" transform="translate(134,333)"/>
<path d="M0 0 C0.33 1.32 0.66 2.64 1 4 C-3.40639354 6.20319677 -5.97450871 7.10924981 -11 7 C-8.21677024 3.90752249 -4.31039412 0 0 0 Z " fill="#43649A" transform="translate(372,256)"/>
<path d="M0 0 C2.56529454 1.28264727 2.66499863 2.22772349 3.625 4.875 C3.88539062 5.57367188 4.14578125 6.27234375 4.4140625 6.9921875 C5 9 5 9 5 12 C5.99 12.33 6.98 12.66 8 13 C8 15.31 8 17.62 8 20 C5.86879738 16.80319607 4.37998891 13.51404109 2.875 10 C2.59785156 9.3709375 2.32070312 8.741875 2.03515625 8.09375 C0.79990142 5.2216304 0 3.16054884 0 0 Z " fill="#264B8A" transform="translate(1051,252)"/>
<path d="M0 0 C0.66 0.33 1.32 0.66 2 1 C-0.77058501 3.97581353 -3.48535116 5.97907692 -7 8 C-7.680625 8.5775 -8.36125 9.155 -9.0625 9.75 C-11 11 -11 11 -13.12109375 10.578125 C-13.74113281 10.38734375 -14.36117188 10.1965625 -15 10 C-14.00097656 9.36191406 -13.00195312 8.72382813 -11.97265625 8.06640625 C-10.66922829 7.23183727 -9.36584519 6.39719823 -8.0625 5.5625 C-7.40314453 5.14162109 -6.74378906 4.72074219 -6.06445312 4.28710938 C-2.86871187 2.35604912 -2.86871187 2.35604912 0 0 Z " fill="#CFE1F2" transform="translate(314,485)"/>
<path d="M0 0 C3.08315385 -0.08733513 6.16598827 -0.14050127 9.25 -0.1875 C10.12269531 -0.21263672 10.99539062 -0.23777344 11.89453125 -0.26367188 C18.41598332 -0.33834499 18.41598332 -0.33834499 21.609375 1.51171875 C22.06828125 2.00285156 22.5271875 2.49398438 23 3 C20.47891897 2.85775413 17.95819597 2.71129879 15.4375 2.5625 C14.73302734 2.52318359 14.02855469 2.48386719 13.30273438 2.44335938 C8.8201459 2.17481721 4.43706503 1.69383803 0 1 C0 0.67 0 0.34 0 0 Z " fill="#4E6FA4" transform="translate(239,382)"/>
<path d="M0 0 C1.45945288 0.08708669 2.91765868 0.19526907 4.375 0.3125 C5.59316406 0.39951172 5.59316406 0.39951172 6.8359375 0.48828125 C9 1 9 1 11 4 C6.83861737 4.08159574 3.0527516 3.98248524 -1 3 C-0.67 2.01 -0.34 1.02 0 0 Z " fill="#204A92" transform="translate(225,377)"/>
<path d="M0 0 C0.33 0.99 0.66 1.98 1 3 C1.66 3 2.32 3 3 3 C3 3.66 3 4.32 3 5 C2.360625 5.268125 1.72125 5.53625 1.0625 5.8125 C-1.33131686 6.88667752 -1.33131686 6.88667752 -2 10 C-2.66 10 -3.32 10 -4 10 C-4 9.34 -4 8.68 -4 8 C-4.66 7.67 -5.32 7.34 -6 7 C-4.02 4.69 -2.04 2.38 0 0 Z " fill="#2C5699" transform="translate(989,372)"/>
<path d="M0 0 C0.33 0 0.66 0 1 0 C1.31806054 7.7276932 1.32270836 13.93924474 -2 21 C-2.91145054 18.02977779 -3.01801972 15.93514414 -2.44140625 12.890625 C-2.30283203 12.13652344 -2.16425781 11.38242187 -2.02148438 10.60546875 C-1.87001953 9.82816406 -1.71855469 9.05085938 -1.5625 8.25 C-1.41490234 7.45722656 -1.26730469 6.66445313 -1.11523438 5.84765625 C-0.75096034 3.89702754 -0.37647488 1.9483107 0 0 Z " fill="#D7E7F3" transform="translate(755,285)"/>
<path d="M0 0 C0.33 0 0.66 0 1 0 C0.67 5.28 0.34 10.56 0 16 C-0.99 16 -1.98 16 -3 16 C-2.52013969 10.43109483 -1.70084819 5.32932432 0 0 Z " fill="#2D538F" transform="translate(731,282)"/>
<path d="M0 0 C0.33 0 0.66 0 1 0 C1.3125 2.8125 1.3125 2.8125 1 6 C-1.3125 7.9375 -1.3125 7.9375 -4 9 C-4.99 8.67 -5.98 8.34 -7 8 C-5.85760183 6.66372225 -4.71098945 5.33104612 -3.5625 4 C-2.92441406 3.2575 -2.28632813 2.515 -1.62890625 1.75 C-1.09136719 1.1725 -0.55382812 0.595 0 0 Z " fill="#345A9D" transform="translate(166,72)"/>
<path d="M0 0 C0.33 0 0.66 0 1 0 C1.16435547 1.03060547 1.16435547 1.03060547 1.33203125 2.08203125 C1.49058594 2.98308594 1.64914062 3.88414062 1.8125 4.8125 C1.96332031 5.70582031 2.11414063 6.59914063 2.26953125 7.51953125 C3.063841 10.21678629 3.96740147 11.14560189 6 13 C6 13.66 6 14.32 6 15 C2.94438218 13.94633868 2.01775264 13.02789701 0.25 10.25 C-1.04852771 6.87382794 -1.33303173 4.58009109 -1 1 C-0.67 0.67 -0.34 0.34 0 0 Z " fill="#254986" transform="translate(452,373)"/>
<path d="M0 0 C0.99 0.33 1.98 0.66 3 1 C3.433125 2.2065625 3.433125 2.2065625 3.875 3.4375 C4.77944219 6.23928441 4.77944219 6.23928441 7.625 7.3125 C8.800625 7.6528125 8.800625 7.6528125 10 8 C9.67 9.32 9.34 10.64 9 12 C5.74483572 8.83525695 2.67991207 5.67247209 0 2 C0 1.34 0 0.68 0 0 Z " fill="#2D4F90" transform="translate(529,316)"/>
<path d="M0 0 C1.32 0.66 2.64 1.32 4 2 C2.69118353 3.66956087 1.37785174 5.33558304 0.0625 7 C-0.66839844 7.928125 -1.39929687 8.85625 -2.15234375 9.8125 C-2.76207031 10.534375 -3.37179687 11.25625 -4 12 C-4.33 12 -4.66 12 -5 12 C-5 10.35 -5 8.7 -5 7 C-4.01 6.67 -3.02 6.34 -2 6 C-0.77479736 2.99152582 -0.77479736 2.99152582 0 0 Z " fill="#29508D" transform="translate(1116,254)"/>
<path d="M0 0 C0.33 0 0.66 0 1 0 C0.67 5.61 0.34 11.22 0 17 C-0.99 17.33 -1.98 17.66 -3 18 C-2.41509121 11.85845775 -1.45933748 5.99320151 0 0 Z " fill="#D1E2EF" transform="translate(928,223)"/>
<path d="M0 0 C-5.27461371 4.66600443 -11.33773626 4.11486662 -18 4 C-18 3.67 -18 3.34 -18 3 C-17.16855469 2.79503906 -16.33710938 2.59007812 -15.48046875 2.37890625 C-14.39378906 2.10949219 -13.30710937 1.84007812 -12.1875 1.5625 C-10.56908203 1.16224609 -10.56908203 1.16224609 -8.91796875 0.75390625 C-2.6199095 -0.87330317 -2.6199095 -0.87330317 0 0 Z " fill="#4768A2" transform="translate(381,395)"/>
<path d="M0 0 C0.33 0.66 0.66 1.32 1 2 C3.02463255 2.65213292 3.02463255 2.65213292 5 3 C5.33 2.01 5.66 1.02 6 0 C7 3 7 3 7 5 C8.65 5.33 10.3 5.66 12 6 C12 6.33 12 6.66 12 7 C3.80743982 6.80743982 3.80743982 6.80743982 0.4375 3.4375 C-0.2740625 2.2309375 -0.2740625 2.2309375 -1 1 C-0.67 0.67 -0.34 0.34 0 0 Z " fill="#3E619A" transform="translate(772,383)"/>
<path d="M0 0 C0.66 0 1.32 0 2 0 C1.34 5.28 0.68 10.56 0 16 C-0.33 16 -0.66 16 -1 16 C-1.85330338 10.16524985 -2.48351814 5.55139349 0 0 Z " fill="#DCE9F5" transform="translate(889,283)"/>
<path d="M0 0 C0.99 0 1.98 0 3 0 C2.01 6.93 1.02 13.86 0 21 C-0.33 21 -0.66 21 -1 21 C-0.67 14.07 -0.34 7.14 0 0 Z " fill="#CBDDEF" transform="translate(784,274)"/>
<path d="M0 0 C0.33 0.66 0.66 1.32 1 2 C-0.8130666 6.63339243 -2.94775971 9.1524798 -7 12 C-7.66 11.67 -8.32 11.34 -9 11 C-6.03 7.37 -3.06 3.74 0 0 Z " fill="#DDEAF5" transform="translate(1152,217)"/>
<path d="M0 0 C0.99 0 1.98 0 3 0 C3.33 5.28 3.66 10.56 4 16 C2.14353999 13.21530998 1.54842185 11.7318584 0.875 8.5625 C0.70742187 7.80066406 0.53984375 7.03882813 0.3671875 6.25390625 C0 4 0 4 0 0 Z " fill="#D7EAF9" transform="translate(226,194)"/>
<path d="M0 0 C0.33 0 0.66 0 1 0 C1.20674944 5.78898419 0.59162079 10.42932723 -1 16 C-1.33 16 -1.66 16 -2 16 C-2 11.71 -2 7.42 -2 3 C-1.34 3 -0.68 3 0 3 C0 2.01 0 1.02 0 0 Z " fill="#24478B" transform="translate(614,182)"/>
<path d="M0 0 C0.721875 0.103125 1.44375 0.20625 2.1875 0.3125 C-0.39034846 2.96002004 -2.72898098 5.25682065 -5.8125 7.3125 C-6.4725 7.9725 -7.1325 8.6325 -7.8125 9.3125 C-7.8125 5.3125 -7.8125 5.3125 -5.625 2.5625 C-2.8125 0.3125 -2.8125 0.3125 0 0 Z " fill="#285091" transform="translate(599.8125,171.6875)"/>
<path d="M0 0 C3.39417765 3.12621626 5.6062718 5.56541027 7 10 C5.02 10.99 5.02 10.99 3 12 C3.33 10.68 3.66 9.36 4 8 C3.34 8 2.68 8 2 8 C1.34 5.36 0.68 2.72 0 0 Z " fill="#335794" transform="translate(262,92)"/>
<path d="M0 0 C1.74325447 2.6148817 2.41587957 4.0053433 3.125 6.9375 C3.29257812 7.60652344 3.46015625 8.27554687 3.6328125 8.96484375 C4 11 4 11 4 15 C3.34 15 2.68 15 2 15 C0.2520497 9.75614911 -0.19392201 5.52677733 0 0 Z " fill="#4464A0" transform="translate(386,293)"/>
<path d="M0 0 C1.65 1.65 3.3 3.3 5 5 C4.34 5.66 3.68 6.32 3 7 C3 6.34 3 5.68 3 5 C1.02 5.33 -0.96 5.66 -3 6 C-3 4.35 -3 2.7 -3 1 C-2.01 0.67 -1.02 0.34 0 0 Z " fill="#245098" transform="translate(204,273)"/>
<path d="M0 0 C0.66 0.33 1.32 0.66 2 1 C0.89847594 2.43952597 -0.2063304 3.87654071 -1.3125 5.3125 C-1.92738281 6.11300781 -2.54226563 6.91351563 -3.17578125 7.73828125 C-4.69916307 9.62701374 -6.24434407 11.33077636 -8 13 C-8.66 12.67 -9.32 12.34 -10 12 C-6.7 8.04 -3.4 4.08 0 0 Z " fill="#D9E8F6" transform="translate(355,446)"/>
<path d="M0 0 C0.66 0.99 1.32 1.98 2 3 C-0.97 7.95 -0.97 7.95 -4 13 C-4.66 12.34 -5.32 11.68 -6 11 C-4.02 7.37 -2.04 3.74 0 0 Z " fill="#335894" transform="translate(716,340)"/>
<path d="M0 0 C0.33 0 0.66 0 1 0 C2.33257403 10.55808656 2.33257403 10.55808656 1 15 C0.67 15 0.34 15 0 15 C-2.27571116 5.98468271 -2.27571116 5.98468271 -1.125 1.875 C-0.75375 1.25625 -0.3825 0.6375 0 0 Z " fill="#2F599D" transform="translate(487,302)"/>
<path d="M0 0 C3.28788824 3.11016455 5.83735988 6.01618925 8 10 C6.68 10.33 5.36 10.66 4 11 C3.67 9.02 3.34 7.04 3 5 C2.34 5 1.68 5 1 5 C0.67 3.35 0.34 1.7 0 0 Z " fill="#35589B" transform="translate(864,296)"/>
<path d="M0 0 C1.6875 1.4375 1.6875 1.4375 3 4 C2.35087445 7.14284955 1.23221253 10.04268993 0 13 C-0.66 13 -1.32 13 -2 13 C-1.85769192 11.58297487 -1.71099254 10.1663904 -1.5625 8.75 C-1.48128906 7.96109375 -1.40007812 7.1721875 -1.31640625 6.359375 C-1.02365007 4.17635361 -0.57935581 2.1226818 0 0 Z " fill="#375A97" transform="translate(274,290)"/>
<path d="M0 0 C3.79620155 1.26540052 4.48678188 2.78218431 6.6875 6.0625 C7.31011719 6.98160156 7.93273437 7.90070313 8.57421875 8.84765625 C9.04472656 9.55792969 9.51523437 10.26820313 10 11 C9.01 11.495 9.01 11.495 8 12 C8 11.34 8 10.68 8 10 C7.34 10 6.68 10 6 10 C3 6.53846154 3 6.53846154 3 4 C2.01 4 1.02 4 0 4 C0 2.68 0 1.36 0 0 Z " fill="#345597" transform="translate(542,292)"/>
<path d="M0 0 C0.33 0 0.66 0 1 0 C0.42085333 6.01326751 -0.22337945 12.00892722 -1 18 C-1.33 18 -1.66 18 -2 18 C-3.18933594 11.00727785 -2.99415978 6.46738512 0 0 Z " fill="#DCE8F4" transform="translate(571,284)"/>
<path d="M0 0 C0.66 0 1.32 0 2 0 C1.30834212 5.41798672 0.24200752 10.6822785 -1 16 C-1.87840996 12.90279155 -1.99435406 11.09354597 -1 8 C-1.66 7.67 -2.32 7.34 -3 7 C-2.01 4.69 -1.02 2.38 0 0 Z " fill="#D5E2F1" transform="translate(627,276)"/>
<path d="M0 0 C2 3 2 3 2 5.0625 C1 7 1 7 -2.0625 8.25 C-3.031875 8.4975 -4.00125 8.745 -5 9 C-3.35 6.03 -1.7 3.06 0 0 Z " fill="#2B5199" transform="translate(94,166)"/>
<path d="M0 0 C1.65 0.33 3.3 0.66 5 1 C0.375 5.875 0.375 5.875 -3 7 C-3.33 6.01 -3.66 5.02 -4 4 C-3.34 4 -2.68 4 -2 4 C-1.34 2.68 -0.68 1.36 0 0 Z " fill="#295299" transform="translate(259,104)"/>
<path d="M0 0 C4.13937592 3.30015998 7.58662205 6.17324411 10 11 C9.34 11 8.68 11 8 11 C8 10.34 8 9.68 8 9 C6.68 9 5.36 9 4 9 C0 2.25 0 2.25 0 0 Z " fill="#2C5594" transform="translate(232,57)"/>
<path d="M0 0 C1.79379098 0.44994757 3.58498928 0.91024143 5.375 1.375 C6.37273437 1.63023437 7.37046875 1.88546875 8.3984375 2.1484375 C11 3 11 3 13 5 C10.31143576 6.00821159 8.58296785 6.22736824 5.88671875 5.17578125 C3.89205069 4.16604698 1.9353228 3.11893353 0 2 C0 1.34 0 0.68 0 0 Z " fill="#244E8C" transform="translate(136,469)"/>
<path d="M0 0 C0.33 0.99 0.66 1.98 1 3 C-0.14453125 4.82421875 -0.14453125 4.82421875 -1.8125 6.6875 C-2.35519531 7.31011719 -2.89789062 7.93273437 -3.45703125 8.57421875 C-5 10 -5 10 -7 10 C-7 10.66 -7 11.32 -7 12 C-7.66 11.67 -8.32 11.34 -9 11 C-6.03 7.37 -3.06 3.74 0 0 Z " fill="#CADCEE" transform="translate(1024,370)"/>
<path d="M0 0 C0.33 0.99 0.66 1.98 1 3 C1.66 3 2.32 3 3 3 C1.62308038 5.75383923 -0.36720042 6.51483101 -3 8 C-3 7.34 -3 6.68 -3 6 C-3.66 5.67 -4.32 5.34 -5 5 C-3.35 3.35 -1.7 1.7 0 0 Z " fill="#3359A1" transform="translate(709,352)"/>
<path d="M0 0 C0.96218772 3.14897798 1.04930303 5.72762019 0.75 9 C0.68296875 9.845625 0.6159375 10.69125 0.546875 11.5625 C-0.07769168 14.34628293 -1.15455175 15.85689881 -3 18 C-3.42765417 11.58518742 -1.85743168 6.11404596 0 0 Z " fill="#2D5391" transform="translate(25,298)"/>
<path d="M0 0 C0.33 0.66 0.66 1.32 1 2 C-0.58086048 2.36504603 -2.16483907 2.71660506 -3.75 3.0625 C-4.63171875 3.25972656 -5.5134375 3.45695313 -6.421875 3.66015625 C-8.98679028 3.99825872 -10.57091639 3.81158635 -13 3 C-8.51925805 -0.36055646 -5.39449293 -0.27429625 0 0 Z " fill="#375D93" transform="translate(1149,195)"/>
<path d="M0 0 C0.33 0.99 0.66 1.98 1 3 C-1.97 6.3 -4.94 9.6 -8 13 C-8.66 12.67 -9.32 12.34 -10 12 C-9.44570313 11.38511719 -8.89140625 10.77023437 -8.3203125 10.13671875 C-7.59585938 9.32847656 -6.87140625 8.52023437 -6.125 7.6875 C-5.40570312 6.88699219 -4.68640625 6.08648437 -3.9453125 5.26171875 C-1.88394498 2.95810917 -1.88394498 2.95810917 0 0 Z " fill="#D3E1F2" transform="translate(992,408)"/>
<path d="M0 0 C0.33 0.66 0.66 1.32 1 2 C-0.97764782 6.06516496 -3.7373124 8.91367389 -7 12 C-7.66 11.67 -8.32 11.34 -9 11 C-6.03 7.37 -3.06 3.74 0 0 Z " fill="#D9E4F1" transform="translate(731,360)"/>
<path d="M0 0 C3.82524236 1.450954 5.19090966 3.38181932 7 7 C7 7.66 7 8.32 7 9 C7.99 9.33 8.98 9.66 10 10 C9.34 10.66 8.68 11.32 8 12 C6.66081194 10.37982158 5.3288031 8.75370657 4 7.125 C3.2575 6.22007812 2.515 5.31515625 1.75 4.3828125 C0 2 0 2 0 0 Z " fill="#2F5390" transform="translate(547,340)"/>
<path d="M0 0 C0.33 0 0.66 0 1 0 C1.08097324 2.27024968 1.13917704 4.54132075 1.1875 6.8125 C1.22230469 8.07707031 1.25710938 9.34164063 1.29296875 10.64453125 C1 14 1 14 -2 17 C-1.34 11.39 -0.68 5.78 0 0 Z " fill="#D4E6F4" transform="translate(255,247)"/>
<path d="M0 0 C0 0.99 0 1.98 0 3 C-3.96 3.66 -7.92 4.32 -12 5 C-8.10259914 -0.19653449 -6.15436159 -0.13676359 0 0 Z " fill="#42639D" transform="translate(1048,200)"/>
<path d="M0 0 C0.66 0 1.32 0 2 0 C1.88512252 1.58409994 1.75765492 3.16728963 1.625 4.75 C1.52058594 6.07257813 1.52058594 6.07257813 1.4140625 7.421875 C1.00149945 9.99066382 0.28839043 11.75841015 -1 14 C-1.027193 12.41676312 -1.04648306 10.83338938 -1.0625 9.25 C-1.07410156 8.36828125 -1.08570313 7.4865625 -1.09765625 6.578125 C-1.00826198 4.2181162 -0.66912821 2.25501476 0 0 Z " fill="#234889" transform="translate(489,294)"/>
<path d="M0 0 C0.33 0 0.66 0 1 0 C1.37851209 5.93002267 0.10575375 10.47239641 -2 16 C-2.33 16 -2.66 16 -3 16 C-2.88487847 14.27014758 -2.75744323 12.54111249 -2.625 10.8125 C-2.55539062 9.84957031 -2.48578125 8.88664062 -2.4140625 7.89453125 C-1.99784147 4.98491062 -1.20125904 2.67109226 0 0 Z " fill="#1F458C" transform="translate(473,256)"/>
<path d="M0 0 C0.66 0 1.32 0 2 0 C1.43393721 4.69023454 0.81462495 9.34500026 0 14 C-0.33 14 -0.66 14 -1 14 C-1.02694851 12.04174127 -1.04637218 10.08337774 -1.0625 8.125 C-1.07410156 7.03445312 -1.08570313 5.94390625 -1.09765625 4.8203125 C-1 2 -1 2 0 0 Z " fill="#2D5093" transform="translate(761,245)"/>
<path d="M0 0 C3.25524265 3.02272532 5.61820737 6.25718301 8 10 C6.35 9.67 4.7 9.34 3 9 C2.01 6.03 1.02 3.06 0 0 Z " fill="#375D9A" transform="translate(486,216)"/>
<path d="M0 0 C1.62580966 0.11398665 3.25067157 0.24155659 4.875 0.375 C5.77992188 0.44460938 6.68484375 0.51421875 7.6171875 0.5859375 C10 1 10 1 12 3 C10.56344146 3.08131463 9.1255517 3.13933559 7.6875 3.1875 C6.48673828 3.23970703 6.48673828 3.23970703 5.26171875 3.29296875 C2.52148416 2.93801608 1.70828921 2.10633718 0 0 Z " fill="#1F478D" transform="translate(166,388)"/>
<path d="M0 0 C0.33 0 0.66 0 1 0 C1 4.29 1 8.58 1 13 C0.01 13 -0.98 13 -2 13 C-1.85769192 11.58297487 -1.71099254 10.1663904 -1.5625 8.75 C-1.48128906 7.96109375 -1.40007813 7.1721875 -1.31640625 6.359375 C-1.02365007 4.17635361 -0.57935581 2.1226818 0 0 Z " fill="#DAE7F4" transform="translate(659,251)"/>
<path d="M0 0 C0.33 1.32 0.66 2.64 1 4 C-1.97 6.475 -1.97 6.475 -5 9 C-5.66 8.67 -6.32 8.34 -7 8 C-4.69 5.36 -2.38 2.72 0 0 Z " fill="#305692" transform="translate(982,381)"/>
<path d="M0 0 C0.33 0.66 0.66 1.32 1 2 C-1.16798732 7.4770206 -1.16798732 7.4770206 -4.1875 9.375 C-4.785625 9.58125 -5.38375 9.7875 -6 10 C-5.49477778 5.62140745 -2.82172778 3.18348776 0 0 Z " fill="#395A9B" transform="translate(1042,309)"/>
<path d="M0 0 C0.33 0 0.66 0 1 0 C1.08082094 1.95766281 1.13910778 3.91626728 1.1875 5.875 C1.23970703 7.51082031 1.23970703 7.51082031 1.29296875 9.1796875 C1.19628906 10.11039062 1.09960938 11.04109375 1 12 C0.01 12.66 -0.98 13.32 -2 14 C-1.43393721 9.30976546 -0.81462495 4.65499974 0 0 Z " fill="#D4E1F2" transform="translate(145,273)"/>
<path d="M0 0 C0.33 0 0.66 0 1 0 C1.22151549 1.79008467 1.42682213 3.58218162 1.625 5.375 C1.74101563 6.37273437 1.85703125 7.37046875 1.9765625 8.3984375 C1.98429688 9.25695312 1.99203125 10.11546875 2 11 C1.34 11.66 0.68 12.32 0 13 C-1.36421031 10.27157939 -0.87807211 8.39046682 -0.5625 5.375 C-0.40974609 3.87066406 -0.40974609 3.87066406 -0.25390625 2.3359375 C-0.17011719 1.56507813 -0.08632813 0.79421875 0 0 Z " fill="#4267A5" transform="translate(633,251)"/>
<path d="M0 0 C0.99 0.33 1.98 0.66 3 1 C3 1.66 3 2.32 3 3 C3.66 3 4.32 3 5 3 C5.99 4.98 6.98 6.96 8 9 C4.20620942 7.50958227 2.31656242 5.30937488 0 2 C0 1.34 0 0.68 0 0 Z " fill="#294F8E" transform="translate(199,220)"/>
<path d="M0 0 C0.598125 0.226875 1.19625 0.45375 1.8125 0.6875 C1.008125 1.30625 0.20375 1.925 -0.625 2.5625 C-3.22624519 4.42914041 -3.22624519 4.42914041 -4.1875 6.6875 C-5.1775 6.6875 -6.1675 6.6875 -7.1875 6.6875 C-3.9375 -0.5625 -3.9375 -0.5625 0 0 Z " fill="#2E5390" transform="translate(974.1875,205.3125)"/>
<path d="M0 0 C-1.44253657 3.36591866 -3.33264727 5.51047079 -6 8 C-5.6875 5.125 -5.6875 5.125 -5 2 C-2 0 -2 0 0 0 Z " fill="#284E8C" transform="translate(363,434)"/>
<path d="M0 0 C0.99 0 1.98 0 3 0 C1.44499019 3.81684226 -1.03595495 6.19195732 -4 9 C-4 8.01 -4 7.02 -4 6 C-3.34 6 -2.68 6 -2 6 C-1.855625 5.195625 -1.71125 4.39125 -1.5625 3.5625 C-1 1 -1 1 0 0 Z " fill="#DCECF6" transform="translate(953,411)"/>
<path d="M0 0 C0.33 0 0.66 0 1 0 C1 4.62 1 9.24 1 14 C0.01 14.33 -0.98 14.66 -2 15 C-1.34 10.05 -0.68 5.1 0 0 Z " fill="#C6D7EC" transform="translate(906,344)"/>
<path d="M0 0 C0.33 0 0.66 0 1 0 C1.08121924 1.60332791 1.13929134 3.20784026 1.1875 4.8125 C1.23970703 6.15248047 1.23970703 6.15248047 1.29296875 7.51953125 C0.95081002 10.41647515 0.24606427 11.22555028 -2 13 C-1.85851011 11.3954444 -1.71164314 9.79136233 -1.5625 8.1875 C-1.48128906 7.29417969 -1.40007813 6.40085937 -1.31640625 5.48046875 C-1 3 -1 3 0 0 Z " fill="#CBDCEC" transform="translate(588,344)"/>
<path d="M0 0 C0.33 0 0.66 0 1 0 C1.99 4.62 2.98 9.24 4 14 C3.01 13.67 2.02 13.34 1 13 C-0.10228696 8.59085217 -0.07654536 4.51617599 0 0 Z " fill="#1F468C" transform="translate(132,339)"/>
<path d="M0 0 C0.33 0 0.66 0 1 0 C0.67 2.97 0.34 5.94 0 9 C-4.875 4.25 -4.875 4.25 -6 2 C-4.02 2.66 -2.04 3.32 0 4 C0 2.68 0 1.36 0 0 Z " fill="#E3F3FC" transform="translate(566,312)"/>
<path d="M0 0 C2.95929119 2.75520215 5.03681826 5.46627288 7 9 C6.01 9 5.02 9 4 9 C3.67 8.34 3.34 7.68 3 7 C2.01 6.67 1.02 6.34 0 6 C0 4.02 0 2.04 0 0 Z " fill="#335994" transform="translate(222,296)"/>
<path d="M0 0 C2.51236985 2.40313638 3.95013095 3.78319518 4.09765625 7.3828125 C4.08605469 8.28773438 4.07445312 9.19265625 4.0625 10.125 C4.05347656 11.03507813 4.04445313 11.94515625 4.03515625 12.8828125 C4.02355469 13.58148438 4.01195312 14.28015625 4 15 C3.67 15 3.34 15 3 15 C2 10 1 5 0 0 Z " fill="#4D6BA0" transform="translate(925,208)"/>
<path d="M0 0 C0 0.33 0 0.66 0 1 C-2.31 1 -4.62 1 -7 1 C-7.33 1.99 -7.66 2.98 -8 4 C-9.65 4.33 -11.3 4.66 -13 5 C-8.7797731 -0.27528362 -6.38501231 -0.54110274 0 0 Z " fill="#5072A3" transform="translate(761,203)"/>
<path d="M0 0 C9.17286652 -0.63019694 9.17286652 -0.63019694 12.625 2 C13.07875 2.66 13.5325 3.32 14 4 C11 4 11 4 9.25 3.0625 C6.23469916 1.63860793 3.29232427 1.37988357 0 1 C0 0.67 0 0.34 0 0 Z " fill="#34578D" transform="translate(278,169)"/>
<path d="M0 0 C4.29 0.99 8.58 1.98 13 3 C13 3.33 13 3.66 13 4 C8.71 3.67 4.42 3.34 0 3 C0 2.01 0 1.02 0 0 Z " fill="#244A8B" transform="translate(169,479)"/>
<path d="M0 0 C1.40742022 2.81484045 0.66652164 4.56936113 0.0625 7.625 C-0.13214844 8.62789063 -0.32679688 9.63078125 -0.52734375 10.6640625 C-0.68332031 11.43492187 -0.83929687 12.20578125 -1 13 C-1.12375 12.360625 -1.2475 11.72125 -1.375 11.0625 C-1.58125 10.381875 -1.7875 9.70125 -2 9 C-2.66 8.67 -3.32 8.34 -4 8 C-3.67 7.34 -3.34 6.68 -3 6 C-2.34 6 -1.68 6 -1 6 C-1.309375 5.071875 -1.309375 5.071875 -1.625 4.125 C-1.810625 3.073125 -1.810625 3.073125 -2 2 C-1.34 1.34 -0.68 0.68 0 0 Z " fill="#D2E2EF" transform="translate(730,281)"/>
<path d="M0 0 C0.66 0.33 1.32 0.66 2 1 C2 1.99 2 2.98 2 4 C1.01 4 0.02 4 -1 4 C-1.33 4.99 -1.66 5.98 -2 7 C-2.99 7.33 -3.98 7.66 -5 8 C-3.8141763 4.62496331 -2.72426311 2.35277269 0 0 Z " fill="#D7E6F3" transform="translate(274,171)"/>
<path d="M0 0 C0.66 0.33 1.32 0.66 2 1 C2 2.33333333 2 3.66666667 2 5 C-0.31 5.66 -2.62 6.32 -5 7 C-3.47793991 4.37098712 -2.15634036 2.15634036 0 0 Z " fill="#315495" transform="translate(135,111)"/>
<path d="M0 0 C-3.68734758 2.45823172 -6.69699971 3.01242616 -11 4 C-11.33 3.34 -11.66 2.68 -12 2 C-7.82262526 0.40861915 -4.46839215 -0.21278058 0 0 Z " fill="#335693" transform="translate(261,511)"/>
<path d="M0 0 C0.99 0 1.98 0 3 0 C1.70700306 2.88437779 0.34058637 4.87219421 -2 7 C-2.66 6.67 -3.32 6.34 -4 6 C-2.1875 3 -2.1875 3 0 0 Z " fill="#D3E2F0" transform="translate(361,437)"/>
<path d="M0 0 C0.99 1.32 1.98 2.64 3 4 C2.01 6.31 1.02 8.62 0 11 C-0.66 10.67 -1.32 10.34 -2 10 C-2 9.34 -2 8.68 -2 8 C-1.34 8 -0.68 8 0 8 C0 5.36 0 2.72 0 0 Z " fill="#295097" transform="translate(368,417)"/>
<path d="M0 0 C1.109375 1.73828125 1.109375 1.73828125 2 4 C1.390625 6.10546875 1.390625 6.10546875 0.25 8.1875 C-0.11609375 8.88230469 -0.4821875 9.57710938 -0.859375 10.29296875 C-2 12 -2 12 -4 13 C-3.79503906 12.39671875 -3.59007812 11.7934375 -3.37890625 11.171875 C-2.97478516 9.97304688 -2.97478516 9.97304688 -2.5625 8.75 C-2.29566406 7.96109375 -2.02882813 7.1721875 -1.75390625 6.359375 C-1.08045292 4.25178012 -0.50849405 2.15246027 0 0 Z " fill="#D9E6F3" transform="translate(746,329)"/>
<path d="M0 0 C0.33 0 0.66 0 1 0 C0.67 3.3 0.34 6.6 0 10 C-0.99 9.67 -1.98 9.34 -3 9 C-3.33 8.01 -3.66 7.02 -4 6 C-2.68 5.67 -1.36 5.34 0 5 C0 3.35 0 1.7 0 0 Z " fill="#C4DAEE" transform="translate(885,311)"/>
<path d="M0 0 C0.99 0.33 1.98 0.66 3 1 C2.34 4.3 1.68 7.6 1 11 C0.67 11 0.34 11 0 11 C0 7.37 0 3.74 0 0 Z " fill="#21498D" transform="translate(646,302)"/>
<path d="M0 0 C1.68762851 1.6454378 3.3540349 3.31288577 5 5 C5 5.33 5 5.66 5 6 C3.35 6 1.7 6 0 6 C-1 3 -1 3 0 0 Z " fill="#2C5499" transform="translate(526,270)"/>
<path d="M0 0 C-0.33 0.99 -0.66 1.98 -1 3 C-4.3 3 -7.6 3 -11 3 C-11 2.67 -11 2.34 -11 2 C-7.12315913 0.80712589 -4.08378077 0 0 0 Z " fill="#D7E7F4" transform="translate(322,267)"/>
<path d="M0 0 C0.66 0.66 1.32 1.32 2 2 C0.02 4.31 -1.96 6.62 -4 9 C-4.33 8.34 -4.66 7.68 -5 7 C-4.0625 4.375 -4.0625 4.375 -3 2 C-2.01 2 -1.02 2 0 2 C0 1.34 0 0.68 0 0 Z " fill="#244C8D" transform="translate(357,238)"/>
<path d="M0 0 C2.23551759 3.35327639 2.17283528 3.90743657 1.625 7.6875 C1.51414062 8.49574219 1.40328125 9.30398437 1.2890625 10.13671875 C1.19367187 10.75160156 1.09828125 11.36648437 1 12 C0.67 12 0.34 12 0 12 C-0.19573608 10.56359829 -0.38127816 9.12580496 -0.5625 7.6875 C-0.66691406 6.88699219 -0.77132812 6.08648437 -0.87890625 5.26171875 C-1 3 -1 3 0 0 Z " fill="#D8E7F1" transform="translate(899,223)"/>
<path d="M0 0 C1.98 0 3.96 0 6 0 C6 0.99 6 1.98 6 3 C4.68 3 3.36 3 2 3 C1.67 4.32 1.34 5.64 1 7 C0.67 4.69 0.34 2.38 0 0 Z " fill="#30558F" transform="translate(479,214)"/>
<path d="M0 0 C6.0546875 -0.1953125 6.0546875 -0.1953125 8 0 C8.66 0.66 9.32 1.32 10 2 C6.61981469 3.04005702 3.5219721 3.08004482 0 3 C0 2.01 0 1.02 0 0 Z " fill="#22498E" transform="translate(1043,201)"/>
<path d="M0 0 C0.91007813 0.00902344 1.82015625 0.01804688 2.7578125 0.02734375 C3.45648437 0.03894531 4.15515625 0.05054688 4.875 0.0625 C4.875 0.3925 4.875 0.7225 4.875 1.0625 C4.18792969 1.18367187 3.50085938 1.30484375 2.79296875 1.4296875 C1.89191406 1.59726563 0.99085938 1.76484375 0.0625 1.9375 C-0.83082031 2.09992188 -1.72414063 2.26234375 -2.64453125 2.4296875 C-5.35227846 2.97438449 -5.35227846 2.97438449 -8.125 5.0625 C-7.75 3.125 -7.75 3.125 -7.125 1.0625 C-4.60024538 -0.19987731 -2.81299534 -0.03606404 0 0 Z " fill="#E6F6FB" transform="translate(756.125,201.9375)"/>
<path d="M0 0 C0.66 0.33 1.32 0.66 2 1 C0.6302836 4.99500618 -1.25722422 7.80009492 -4 11 C-3.39301257 6.87248551 -1.96189209 3.6678852 0 0 Z " fill="#284F8E" transform="translate(238,128)"/>
<path d="M0 0 C2.0625 0.4375 2.0625 0.4375 4 1 C2.69593116 3.01920337 1.36176581 5.01924973 0 7 C-0.33 7 -0.66 7 -1 7 C-1.04254356 5.00045254 -1.04080783 2.99958364 -1 1 C-0.67 0.67 -0.34 0.34 0 0 Z " fill="#EDF4F9" transform="translate(126,116)"/>
<path d="M0 0 C0 0.99 0 1.98 0 3 C-2.3125 5.25 -2.3125 5.25 -5 7 C-5.99 6.67 -6.98 6.34 -8 6 C-5.36 4.02 -2.72 2.04 0 0 Z " fill="#DAE8F5" transform="translate(264,105)"/>
<path d="M0 0 C0.66 0.33 1.32 0.66 2 1 C1.34 2.65 0.68 4.3 0 6 C-3 6 -3 6 -5 5 C-3.35 3.35 -1.7 1.7 0 0 Z " fill="#234E90" transform="translate(199,35)"/>
<path d="M0 0 C1 2 1 2 0.3125 4.5625 C-1 7 -1 7 -3.125 7.8125 C-3.74375 7.874375 -4.3625 7.93625 -5 8 C-3.62845496 5.04590299 -2.01136276 2.55991624 0 0 Z " fill="#375C97" transform="translate(957,410)"/>
<path d="M0 0 C4 1 4 1 5.8125 2.8125 C7 5 7 5 6 9 C4.02 6.03 2.04 3.06 0 0 Z " fill="#31538D" transform="translate(839,306)"/>
<path d="M0 0 C2 4 2 4 2 6 C1.34 6 0.68 6 0 6 C0.04125 6.94875 0.0825 7.8975 0.125 8.875 C0 12 0 12 -2 14 C-1.34 9.38 -0.68 4.76 0 0 Z " fill="#6381AF" transform="translate(953,275)"/>
<path d="M0 0 C2 3 2 3 1.875 5.0625 C1 7 1 7 -3 9 C-2.01 6.03 -1.02 3.06 0 0 Z " fill="#3A609B" transform="translate(38,262)"/>
<path d="M0 0 C0.33 0.66 0.66 1.32 1 2 C-0.65 4.31 -2.3 6.62 -4 9 C-4.99 8.67 -5.98 8.34 -7 8 C-4.69 5.36 -2.38 2.72 0 0 Z " fill="#CFE0EF" transform="translate(1131,242)"/>
<path d="M0 0 C0.33 0.66 0.66 1.32 1 2 C-2.625 7.875 -2.625 7.875 -6 9 C-4.47291037 5.56404834 -2.40072955 2.88087546 0 0 Z " fill="#C7D8EB" transform="translate(357,241)"/>
<path d="M0 0 C0.66 0.33 1.32 0.66 2 1 C2.625 3.5625 2.625 3.5625 3 6 C1.35 5.67 -0.3 5.34 -2 5 C-1.34 3.35 -0.68 1.7 0 0 Z " fill="#335B9A" transform="translate(1068,232)"/>
<path d="M0 0 C0.66 0.33 1.32 0.66 2 1 C1.375 3.4375 1.375 3.4375 0 6 C-3.125 6.8125 -3.125 6.8125 -6 7 C-4.02 4.69 -2.04 2.38 0 0 Z " fill="#365A98" transform="translate(254,144)"/>
<path d="M0 0 C0.33 0.99 0.66 1.98 1 3 C-0.40445835 5.2636564 -2.1967913 7.0208685 -4 9 C-5 6 -5 6 -4.25 3.9375 C-3 2 -3 2 0 0 Z " fill="#2E5290" transform="translate(245,120)"/>
<path d="M0 0 C1 3 1 3 -0.25 5.625 C-2 8 -2 8 -5 9 C-4.42647107 5.12867972 -2.51295648 2.91827204 0 0 Z " fill="#CEDEF0" transform="translate(976,427)"/>
<path d="M0 0 C0.99 0 1.98 0 3 0 C4.125 4.75 4.125 4.75 3 7 C2.01 7 1.02 7 0 7 C0.66 5.02 1.32 3.04 2 1 C1.34 0.67 0.68 0.34 0 0 Z " fill="#DEEAF3" transform="translate(381,393)"/>
<path d="M0 0 C2.31 0.33 4.62 0.66 7 1 C5.75 2.5625 5.75 2.5625 4 4 C1.8125 3.6875 1.8125 3.6875 0 3 C0 2.01 0 1.02 0 0 Z " fill="#2B5396" transform="translate(178,390)"/>
<path d="M0 0 C0.66 0.33 1.32 0.66 2 1 C0.35 2.65 -1.3 4.3 -3 6 C-4.32 5.34 -5.64 4.68 -7 4 C-1.7265625 0.77734375 -1.7265625 0.77734375 0 0 Z " fill="#D5E3F1" transform="translate(712,378)"/>
<path d="M0 0 C0.33 0.99 0.66 1.98 1 3 C-0.9375 5.6875 -0.9375 5.6875 -3 8 C-3.99 7.67 -4.98 7.34 -6 7 C-4.02 4.69 -2.04 2.38 0 0 Z " fill="#3D5F96" transform="translate(996,364)"/>
<path d="M0 0 C2.375 0.625 2.375 0.625 5 2 C6.3125 5.125 6.3125 5.125 7 8 C6.34 8 5.68 8 5 8 C3.7109375 6.50390625 3.7109375 6.50390625 2.375 4.5625 C1.92898438 3.92441406 1.48296875 3.28632813 1.0234375 2.62890625 C0 1 0 1 0 0 Z " fill="#23488B" transform="translate(559,356)"/>
<path d="M0 0 C0.33 0 0.66 0 1 0 C2.19876651 5.44893869 1.91360308 8.22169095 -1 13 C-2.07310858 9.72814447 -1.89263102 7.57052408 -1.0625 4.25 C-0.86785156 3.45078125 -0.67320312 2.6515625 -0.47265625 1.828125 C-0.31667969 1.22484375 -0.16070313 0.6215625 0 0 Z " fill="#C3D8EB" transform="translate(799,353)"/>
<path d="M0 0 C0.625 1.875 0.625 1.875 1 4 C0.34 4.66 -0.32 5.32 -1 6 C-1.99 5.67 -2.98 5.34 -4 5 C-4 4.34 -4 3.68 -4 3 C-3.34 3 -2.68 3 -2 3 C-2 2.34 -2 1.68 -2 1 C-1.34 0.67 -0.68 0.34 0 0 Z " fill="#2C54A2" transform="translate(1093,342)"/>
<path d="M0 0 C0.66 0 1.32 0 2 0 C1.67 3.3 1.34 6.6 1 10 C0.67 10 0.34 10 0 10 C-0.19412181 8.52168779 -0.38012131 7.04230684 -0.5625 5.5625 C-0.66691406 4.73878906 -0.77132812 3.91507812 -0.87890625 3.06640625 C-0.91886719 2.38449219 -0.95882812 1.70257813 -1 1 C-0.67 0.67 -0.34 0.34 0 0 Z " fill="#C6D5E8" transform="translate(159,333)"/>
<path d="M0 0 C2.375 0.6875 2.375 0.6875 5 2 C6.3125 4.625 6.3125 4.625 7 7 C3.17053157 5.54744301 1.87949705 3.57104439 0 0 Z " fill="#274A8E" transform="translate(852,323)"/>
<path d="M0 0 C0.33 0 0.66 0 1 0 C1.37211538 6.57403846 1.37211538 6.57403846 -0.51171875 8.73046875 C-1.00285156 9.14941406 -1.49398437 9.56835938 -2 10 C-1.85950482 8.52031676 -1.71245174 7.04125484 -1.5625 5.5625 C-1.48128906 4.73878906 -1.40007813 3.91507812 -1.31640625 3.06640625 C-1 1 -1 1 0 0 Z " fill="#45649A" transform="translate(783,298)"/>
<path d="M0 0 C1.04449911 3.13349732 0.93423645 3.98968256 0 7 C-0.66 7 -1.32 7 -2 7 C-2.66 5.68 -3.32 4.36 -4 3 C-2.68 2.01 -1.36 1.02 0 0 Z " fill="#365593" transform="translate(249,279)"/>
<path d="M0 0 C0.33 0 0.66 0 1 0 C1.36923077 5.41538462 1.36923077 5.41538462 -0.5 8.375 C-0.995 8.91125 -1.49 9.4475 -2 10 C-1.85950482 8.52031676 -1.71245174 7.04125484 -1.5625 5.5625 C-1.48128906 4.73878906 -1.40007813 3.91507812 -1.31640625 3.06640625 C-1 1 -1 1 0 0 Z " fill="#21488F" transform="translate(957,264)"/>
<path d="M0 0 C0.33 1.32 0.66 2.64 1 4 C-0.65 5.32 -2.3 6.64 -4 8 C-4.66 7.67 -5.32 7.34 -6 7 C-4.02 4.69 -2.04 2.38 0 0 Z " fill="#D8E5F4" transform="translate(1113,264)"/>
<path d="M0 0 C0.99 0.33 1.98 0.66 3 1 C1.02 3.31 -0.96 5.62 -3 8 C-3.33 7.01 -3.66 6.02 -4 5 C-3.34 4.01 -2.68 3.02 -2 2 C-1.34 2 -0.68 2 0 2 C0 1.34 0 0.68 0 0 Z " fill="#DEEDF8" transform="translate(1117,217)"/>
<path d="M0 0 C-1.24976756 3.65316671 -1.67098753 4.78065836 -5 7 C-5.1875 4.625 -5.1875 4.625 -5 2 C-2 0 -2 0 0 0 Z " fill="#294F92" transform="translate(1152,216)"/>
<path d="M0 0 C0.66 0.33 1.32 0.66 2 1 C-0.46153846 5.8 -0.46153846 5.8 -3.1875 6.8125 C-3.785625 6.874375 -4.38375 6.93625 -5 7 C-3.47793991 4.37098712 -2.15634036 2.15634036 0 0 Z " fill="#375794" transform="translate(647,205)"/>
<path d="M0 0 C2.125 0.375 2.125 0.375 4 1 C2.6875 2.5 2.6875 2.5 1 4 C0.01 4 -0.98 4 -2 4 C-2.33 4.66 -2.66 5.32 -3 6 C-2.42655063 3.13275314 -2.1385485 2.1385485 0 0 Z " fill="#234A90" transform="translate(910,206)"/>
<path d="M0 0 C0.66 0 1.32 0 2 0 C0.60667426 3.36720387 -0.9789286 4.9859524 -4 7 C-3.67 5.35 -3.34 3.7 -3 2 C-2.01 2 -1.02 2 0 2 C0 1.34 0 0.68 0 0 Z " fill="#254D8A" transform="translate(978,422)"/>
<path d="M0 0 C0.33 0.66 0.66 1.32 1 2 C-2.06117568 4.62386487 -2.73173127 5 -7 5 C-7 4.34 -7 3.68 -7 3 C-4.69 2.01 -2.38 1.02 0 0 Z " fill="#214E93" transform="translate(213,420)"/>
<path d="M0 0 C0.33 0.66 0.66 1.32 1 2 C0.06553465 4.03144641 -0.93224776 6.03533587 -2 8 C-2.99 7.34 -3.98 6.68 -5 6 C-3.35 4.02 -1.7 2.04 0 0 Z " fill="#3A619B" transform="translate(963,403)"/>
<path d="M0 0 C2.76276177 0.52268466 5.3260876 1.10869587 8 2 C8.33 2.99 8.66 3.98 9 5 C5.22454612 3.90931332 2.52956528 3.0916909 0 0 Z " fill="#406095" transform="translate(638,382)"/>
<path d="M0 0 C0.66 0 1.32 0 2 0 C0.25 5.75 0.25 5.75 -2 8 C-2.33 6.35 -2.66 4.7 -3 3 C-2.01 3 -1.02 3 0 3 C0 2.01 0 1.02 0 0 Z " fill="#345992" transform="translate(738,345)"/>
<path d="M0 0 C2.475 0.99 2.475 0.99 5 2 C5 3.65 5 5.3 5 7 C3.29115995 5.37660195 1.62553283 3.70680947 0 2 C0 1.34 0 0.68 0 0 Z " fill="#24488B" transform="translate(497,273)"/>
<path d="M0 0 C1.32 0.66 2.64 1.32 4 2 C2.68 3.32 1.36 4.64 0 6 C-0.38218767 4.34385343 -0.71395102 2.67542976 -1 1 C-0.67 0.67 -0.34 0.34 0 0 Z " fill="#E9F2F5" transform="translate(1124,206)"/>
<path d="M0 0 C1.24675325 4.98701299 1.24675325 4.98701299 0 8 C-0.99 8.33 -1.98 8.66 -3 9 C-2.01 6.03 -1.02 3.06 0 0 Z " fill="#3C5E97" transform="translate(236,167)"/>
</svg>
